<?xml version="1.0" encoding="UTF-8" standalone="no"?>
<!-- Created with Inkscape (http://www.inkscape.org/) -->

<svg
   xmlns:dc="http://purl.org/dc/elements/1.1/"
   xmlns:cc="http://creativecommons.org/ns#"
   xmlns:rdf="http://www.w3.org/1999/02/22-rdf-syntax-ns#"
   xmlns:svg="http://www.w3.org/2000/svg"
   xmlns="http://www.w3.org/2000/svg"
   xmlns:sodipodi="http://sodipodi.sourceforge.net/DTD/sodipodi-0.dtd"
   xmlns:inkscape="http://www.inkscape.org/namespaces/inkscape"
   width="40.401997"
   height="53.992168"
   viewBox="0 0 40.401996 53.992172"
   id="svg2"
   version="1.1"
   inkscape:version="0.91 r13725"
   sodipodi:docname="novoProblema.svg">
  <defs
     id="defs4">
    <clipPath
       id="presentation_clip_path"
       clipPathUnits="userSpaceOnUse">
      <rect
         x="0"
         y="0"
         width="33867"
         height="19050"
         id="rect7" />
    </clipPath>
  </defs>
  <sodipodi:namedview
     id="base"
     pagecolor="#ffffff"
     bordercolor="#666666"
     borderopacity="1.0"
     inkscape:pageopacity="0.0"
     inkscape:pageshadow="2"
     inkscape:zoom="8"
     inkscape:cx="-2.0079332"
     inkscape:cy="31.111"
     inkscape:document-units="px"
     inkscape:current-layer="g239"
     showgrid="false"
     inkscape:window-width="1366"
     inkscape:window-height="709"
     inkscape:window-x="0"
     inkscape:window-y="33"
     inkscape:window-maximized="1"
     units="px"
     fit-margin-top="2"
     fit-margin-right="2"
     fit-margin-left="2"
     fit-margin-bottom="2" />
  <metadata
     id="metadata7">
    <rdf:RDF>
      <cc:Work
         rdf:about="">
        <dc:format>image/svg+xml</dc:format>
        <dc:type
           rdf:resource="http://purl.org/dc/dcmitype/StillImage" />
        <dc:title></dc:title>
      </cc:Work>
    </rdf:RDF>
  </metadata>
  <g
     inkscape:label="Layer 1"
     inkscape:groupmode="layer"
     id="layer1"
     transform="translate(66.129116,-991.69674)">
    <rect
       class="BoundingBox"
       x="-174.2106"
       y="939.17767"
       width="109.09843"
       height="120.36615"
       id="rect276"
       style="fill:none;fill-rule:evenodd;stroke:none;stroke-width:28.22200012;stroke-linejoin:round;shape-rendering:crispEdges" />
    <g
       id="g239"
       class="Page"
       transform="matrix(0.00698418,0,0,0.00698418,-88.894761,962.12152)">
      <rect
         id="rect244"
         height="7159"
         width="7073"
         y="4521"
         x="2616"
         class="BoundingBox"
         style="fill:none;stroke:none" />
      <path
         id="path246"
         d="m 7919,5358 0,0 91,95 84,99 80,104 75,108 68,111 62,115 57,119 50,121 44,123 37,125 30,127 24,129 17,130 11,129 3,132 -3,130 -11,131 -17,130 -24,129 -29,127 -38,125 -43,124 -50,121 -57,118 -62,115 -68,111 -75,108 -80,104 -84,100 -90,95 C 7728,9043 6614,10456 6153,11431 5692,10457 5103,9612 4385,8894 l 0,0 -91,-95 -84,-99 -80,-104 -74,-108 -69,-111 -62,-115 -57,-119 -50,-121 -44,-123 -37,-126 -30,-126 -24,-129 -17,-130 -10,-130 -4,-131 3,-131 10,-130 18,-130 24,-129 29,-127 38,-125 43,-124 50,-121 57,-118 62,-115 68,-111 75,-108 80,-104 84,-100 90,-95 0,0 95,-90 100,-84 104,-80 108,-75 111,-68 114,-62 119,-57 121,-50 123,-44 126,-37 126,-30 129,-24 130,-17 130,-10 131,-4 132,3 130,10 129,17 129,24 127,30 125,38 124,43 121,50 118,57 115,62 111,68 109,74 104,80 99,84 95,91 1,0 z m 1769,1767 0,0 z m -7072,2 0,0 z"
         inkscape:connector-curvature="0"
         style="fill:#1d9a78;stroke:none" />
      <path
         id="path248"
         d="m 7919,5358 0,0 91,95 84,99 80,104 75,108 68,111 62,115 57,119 50,121 44,123 37,125 30,127 24,129 17,130 11,129 3,132 -3,130 -11,131 -17,130 -24,129 -29,127 -38,125 -43,124 -50,121 -57,118 -62,115 -68,111 -75,108 -80,104 -84,100 -90,95 C 7728,9043 6614,10456 6153,11431 5692,10457 5103,9612 4385,8894 l 0,0 -91,-95 -84,-99 -80,-104 -74,-108 -69,-111 -62,-115 -57,-119 -50,-121 -44,-123 -37,-126 -30,-126 -24,-129 -17,-130 -10,-130 -4,-131 3,-131 10,-130 18,-130 24,-129 29,-127 38,-125 43,-124 50,-121 57,-118 62,-115 68,-111 75,-108 80,-104 84,-100 90,-95 0,0 95,-90 100,-84 104,-80 108,-75 111,-68 114,-62 119,-57 121,-50 123,-44 126,-37 126,-30 129,-24 130,-17 130,-10 131,-4 132,3 130,10 129,17 129,24 127,30 125,38 124,43 121,50 118,57 115,62 111,68 109,74 104,80 99,84 95,91 1,0 z"
         inkscape:connector-curvature="0"
         style="fill:none;stroke:#0e4d3c;stroke-width:212;stroke-linejoin:miter" />
      <rect
         id="rect253"
         height="4214"
         width="4217"
         y="5018"
         x="4039"
         class="BoundingBox"
         style="fill:none;stroke:none" />
      <path
         id="path257"
         d="m 4150,7125 0,0 3,-105 8,-104 13,-104 19,-103 25,-101 30,-101 34,-98 41,-97 45,-95 49,-92 55,-89 59,-86 64,-83 68,-80 72,-76 76,-72 80,-68 83,-64 86,-59 89,-55 92,-50 95,-45 96,-40 99,-35 100,-30 102,-24 103,-19 104,-14 104,-8 105,-3 0,0 105,3 104,8 104,14 102,19 102,24 101,30 98,35 97,40 94,45 92,50 89,54 87,60 83,63 79,68 76,72 72,76 68,80 64,83 59,86 55,89 50,92 45,95 40,97 35,98 30,101 24,101 19,103 14,104 8,104 3,105 0,0 -3,105 -8,104 -14,104 -19,103 -24,101 -30,101 -35,99 -40,96 -45,95 -50,92 -54,89 -60,86 -63,83 -68,80 -72,76 -76,72 -80,68 -83,64 -86,59 -89,55 -92,50 -95,45 -97,40 -98,35 -101,30 -101,24 -103,19 -104,14 -104,8 -105,3 0,0 -105,-3 -104,-8 -104,-13 -103,-19 -101,-25 -101,-30 -98,-34 -97,-41 -95,-45 -92,-49 -89,-55 -86,-59 -83,-64 -80,-68 -76,-72 -72,-76 -68,-80 -64,-83 -59,-86 -55,-89 -50,-92 -45,-95 -40,-96 -35,-99 -30,-100 -24,-102 -19,-103 -14,-104 -8,-104 -3,-105 1,0 z"
         inkscape:connector-curvature="0"
         style="fill:none;stroke:#0e4d3c;stroke-width:212;stroke-linejoin:miter" />
      <g
         style="fill-rule:evenodd;stroke-width:28.22200012;stroke-linejoin:round"
         id="g324"
         class="com.sun.star.drawing.CustomShape"
         transform="matrix(1.8938672,0,0,1.8946245,-17084.279,-37092.059)">
        <g
           id="id15">
          <rect
             style="fill:none;stroke:none"
             id="rect327"
             height="1601"
             width="1602"
             y="22556"
             x="11467"
             class="BoundingBox" />
          <path
             style="fill:#ffffff;stroke:none"
             inkscape:connector-curvature="0"
             id="path329"
             d="m 11467,23226 670,0 0,-670 259,0 0,670 671,0 0,259 -671,0 0,671 -259,0 0,-671 -670,0 0,-259 z m 0,-670 0,0 z m 1600,1600 0,0 z" />
        </g>
      </g>
    </g>
  </g>
</svg>
