<?xml version="1.0" encoding="UTF-8"?>
<!DOCTYPE svg PUBLIC "-//W3C//DTD SVG 1.1//EN" "http://www.w3.org/Graphics/SVG/1.1/DTD/svg11.dtd">
<svg version="1.2" width="17.68mm" height="20.27mm" viewBox="6799 10418 1768 2027" preserveAspectRatio="xMidYMid" fill-rule="evenodd" stroke-width="28.222" stroke-linejoin="round" xmlns="http://www.w3.org/2000/svg" xmlns:ooo="http://xml.openoffice.org/svg/export" xmlns:xlink="http://www.w3.org/1999/xlink" xmlns:presentation="http://sun.com/xmlns/staroffice/presentation" xmlns:smil="http://www.w3.org/2001/SMIL20/" xmlns:anim="urn:oasis:names:tc:opendocument:xmlns:animation:1.0" xml:space="preserve">
 <defs class="ClipPathGroup">
  <clipPath id="presentation_clip_path" clipPathUnits="userSpaceOnUse">
   <rect x="6799" y="10418" width="1768" height="2027"/>
  </clipPath>
 </defs>
 <defs class="TextShapeIndex">
  <g ooo:slide="id1" ooo:id-list="id3 id4 id5"/>
 </defs>
 <defs class="EmbeddedBulletChars">
  <g id="bullet-char-template(57356)" transform="scale(0.00048828125,-0.00048828125)">
   <path d="M 580,1141 L 1163,571 580,0 -4,571 580,1141 Z"/>
  </g>
  <g id="bullet-char-template(57354)" transform="scale(0.00048828125,-0.00048828125)">
   <path d="M 8,1128 L 1137,1128 1137,0 8,0 8,1128 Z"/>
  </g>
  <g id="bullet-char-template(10146)" transform="scale(0.00048828125,-0.00048828125)">
   <path d="M 174,0 L 602,739 174,1481 1456,739 174,0 Z M 1358,739 L 309,1346 659,739 1358,739 Z"/>
  </g>
  <g id="bullet-char-template(10132)" transform="scale(0.00048828125,-0.00048828125)">
   <path d="M 2015,739 L 1276,0 717,0 1260,543 174,543 174,936 1260,936 717,1481 1274,1481 2015,739 Z"/>
  </g>
  <g id="bullet-char-template(10007)" transform="scale(0.00048828125,-0.00048828125)">
   <path d="M 0,-2 C -7,14 -16,27 -25,37 L 356,567 C 262,823 215,952 215,954 215,979 228,992 255,992 264,992 276,990 289,987 310,991 331,999 354,1012 L 381,999 492,748 772,1049 836,1024 860,1049 C 881,1039 901,1025 922,1006 886,937 835,863 770,784 769,783 710,716 594,584 L 774,223 C 774,196 753,168 711,139 L 727,119 C 717,90 699,76 672,76 641,76 570,178 457,381 L 164,-76 C 142,-110 111,-127 72,-127 30,-127 9,-110 8,-76 1,-67 -2,-52 -2,-32 -2,-23 -1,-13 0,-2 Z"/>
  </g>
  <g id="bullet-char-template(10004)" transform="scale(0.00048828125,-0.00048828125)">
   <path d="M 285,-33 C 182,-33 111,30 74,156 52,228 41,333 41,471 41,549 55,616 82,672 116,743 169,778 240,778 293,778 328,747 346,684 L 369,508 C 377,444 397,411 428,410 L 1163,1116 C 1174,1127 1196,1133 1229,1133 1271,1133 1292,1118 1292,1087 L 1292,965 C 1292,929 1282,901 1262,881 L 442,47 C 390,-6 338,-33 285,-33 Z"/>
  </g>
  <g id="bullet-char-template(9679)" transform="scale(0.00048828125,-0.00048828125)">
   <path d="M 813,0 C 632,0 489,54 383,161 276,268 223,411 223,592 223,773 276,916 383,1023 489,1130 632,1184 813,1184 992,1184 1136,1130 1245,1023 1353,916 1407,772 1407,592 1407,412 1353,268 1245,161 1136,54 992,0 813,0 Z"/>
  </g>
  <g id="bullet-char-template(8226)" transform="scale(0.00048828125,-0.00048828125)">
   <path d="M 346,457 C 273,457 209,483 155,535 101,586 74,649 74,723 74,796 101,859 155,911 209,963 273,989 346,989 419,989 480,963 531,910 582,859 608,796 608,723 608,648 583,586 532,535 482,483 420,457 346,457 Z"/>
  </g>
  <g id="bullet-char-template(8211)" transform="scale(0.00048828125,-0.00048828125)">
   <path d="M -4,459 L 1135,459 1135,606 -4,606 -4,459 Z"/>
  </g>
 </defs>
 <defs class="TextEmbeddedBitmaps"/>
 <g class="SlideGroup">
  <g>
   <g id="id1" class="Slide" clip-path="url(#presentation_clip_path)">
    <g class="Page">
     <g class="Group">
      <g class="com.sun.star.drawing.CustomShape">
       <g id="id3">
        <rect class="BoundingBox" stroke="none" fill="none" x="6798" y="10418" width="1771" height="2029"/>
        <path fill="rgb(29,154,120)" stroke="none" d="M 8141,10656 L 8141,10656 8162,10680 8181,10704 8200,10730 8217,10757 8232,10784 8248,10812 8260,10841 8272,10870 8281,10901 8290,10931 8297,10961 8302,10993 8306,11024 8309,11056 8308,11088 8308,11119 8305,11150 8301,11182 8295,11214 8287,11244 8279,11274 8268,11304 8256,11333 8242,11363 8227,11390 8211,11417 8193,11444 8175,11469 8154,11494 8133,11517 8110,11539 C 7987,11613 7742,11991 7640,12303 7561,11985 7422,11721 7225,11510 L 7225,11510 7204,11485 7183,11461 7164,11433 7147,11406 7130,11377 7116,11348 7103,11318 7092,11288 7082,11257 7074,11225 7067,11193 7062,11161 7059,11128 7057,11095 7058,11062 7060,11030 7064,10997 7069,10965 7076,10933 7084,10902 7095,10870 7107,10840 7121,10810 7136,10781 7152,10753 7170,10726 7190,10700 7211,10674 7232,10650 7256,10627 7256,10627 7281,10605 7305,10585 7333,10566 7360,10548 7389,10532 7418,10518 7448,10504 7478,10493 7510,10483 7542,10475 7574,10468 7606,10463 7639,10460 7671,10458 7704,10459 7736,10460 7769,10464 7801,10469 7833,10476 7865,10485 7896,10496 7926,10507 7956,10521 7985,10536 8013,10552 8040,10570 8066,10590 8092,10611 8116,10632 8139,10656 8141,10656 Z M 8567,11113 L 8567,11113 Z M 6799,11053 L 6799,11053 Z"/>
        <path fill="none" stroke="rgb(22,115,90)" stroke-width="79" stroke-linejoin="miter" d="M 8141,10656 L 8141,10656 8162,10680 8181,10704 8200,10730 8217,10757 8232,10784 8248,10812 8260,10841 8272,10870 8281,10901 8290,10931 8297,10961 8302,10993 8306,11024 8309,11056 8308,11088 8308,11119 8305,11150 8301,11182 8295,11214 8287,11244 8279,11274 8268,11304 8256,11333 8242,11363 8227,11390 8211,11417 8193,11444 8175,11469 8154,11494 8133,11517 8110,11539 C 7987,11613 7742,11991 7640,12303 7561,11985 7422,11721 7225,11510 L 7225,11510 7204,11485 7183,11461 7164,11433 7147,11406 7130,11377 7116,11348 7103,11318 7092,11288 7082,11257 7074,11225 7067,11193 7062,11161 7059,11128 7057,11095 7058,11062 7060,11030 7064,10997 7069,10965 7076,10933 7084,10902 7095,10870 7107,10840 7121,10810 7136,10781 7152,10753 7170,10726 7190,10700 7211,10674 7232,10650 7256,10627 7256,10627 7281,10605 7305,10585 7333,10566 7360,10548 7389,10532 7418,10518 7448,10504 7478,10493 7510,10483 7542,10475 7574,10468 7606,10463 7639,10460 7671,10458 7704,10459 7736,10460 7769,10464 7801,10469 7833,10476 7865,10485 7896,10496 7926,10507 7956,10521 7985,10536 8013,10552 8040,10570 8066,10590 8092,10611 8116,10632 8139,10656 8141,10656 Z"/>
       </g>
      </g>
      <g class="com.sun.star.drawing.CustomShape">
       <g id="id4">
        <rect class="BoundingBox" stroke="none" fill="none" x="7429" y="10923" width="501" height="496"/>
        <path fill="rgb(231,230,230)" stroke="none" d="M 7429,11418 L 7429,11171 7429,11171 7429,11158 7430,11146 7432,11134 7434,11121 7437,11109 7440,11097 7445,11085 7449,11074 7455,11062 7460,11051 7467,11040 7474,11030 7481,11020 7489,11010 7498,11001 7507,10992 7516,10984 7526,10976 7536,10968 7547,10961 7558,10955 7569,10949 7580,10944 7592,10939 7604,10935 7616,10932 7629,10929 7641,10927 7654,10925 7666,10924 7679,10924 7692,10924 7704,10925 7717,10927 7729,10929 7742,10932 7754,10935 7766,10939 7778,10944 7789,10949 7800,10955 7811,10961 7822,10968 7832,10976 7842,10984 7851,10992 7860,11001 7869,11010 7877,11020 7884,11030 7891,11040 7898,11051 7903,11062 7909,11074 7913,11085 7918,11097 7921,11109 7924,11121 7926,11134 7928,11146 7929,11158 7929,11171 7929,11418 7429,11418 Z M 7429,11418 L 7429,11418 Z M 7929,10923 L 7929,10923 Z"/>
       </g>
      </g>
      <g class="com.sun.star.drawing.CustomShape">
       <g id="id5">
        <rect class="BoundingBox" stroke="none" fill="none" x="7451" y="10597" width="454" height="454"/>
        <path fill="rgb(231,230,230)" stroke="none" d="M 7479,10824 L 7479,10824 7479,10814 7480,10804 7481,10794 7483,10784 7485,10774 7488,10764 7491,10755 7495,10745 7499,10736 7504,10727 7509,10719 7514,10710 7520,10702 7527,10694 7533,10687 7540,10679 7548,10673 7556,10666 7564,10660 7572,10655 7581,10649 7590,10645 7599,10641 7609,10637 7618,10633 7628,10631 7638,10628 7648,10626 7658,10625 7668,10624 7678,10624 7678,10624 7688,10624 7699,10625 7709,10626 7719,10628 7729,10631 7739,10634 7749,10637 7759,10641 7768,10646 7777,10651 7786,10656 7795,10662 7803,10668 7811,10675 7818,10682 7826,10690 7832,10698 7839,10706 7845,10715 7850,10723 7855,10733 7859,10742 7864,10752 7867,10761 7870,10771 7872,10782 7874,10792 7876,10802 7877,10813 7877,10823 7877,10823 7877,10833 7876,10844 7875,10854 7873,10864 7870,10875 7867,10885 7864,10894 7860,10904 7855,10914 7850,10923 7845,10932 7839,10940 7833,10949 7826,10956 7819,10964 7811,10971 7803,10978 7795,10984 7786,10990 7778,10996 7768,11001 7759,11005 7749,11009 7740,11013 7730,11016 7719,11018 7709,11020 7699,11022 7688,11023 7678,11023 7678,11023 7668,11023 7657,11022 7647,11021 7637,11019 7626,11016 7616,11013 7607,11010 7597,11006 7587,11001 7578,10996 7569,10991 7561,10985 7552,10979 7545,10972 7537,10965 7530,10957 7523,10949 7517,10941 7511,10932 7505,10924 7500,10914 7496,10905 7492,10895 7488,10886 7485,10876 7483,10865 7481,10855 7479,10845 7478,10834 7478,10824 7479,10824 Z M 7479,10624 L 7479,10624 Z M 7879,11024 L 7879,11024 Z"/>
        <path fill="none" stroke="rgb(29,154,120)" stroke-width="53" stroke-linejoin="miter" d="M 7479,10824 L 7479,10824 7479,10814 7480,10804 7481,10794 7483,10784 7485,10774 7488,10764 7491,10755 7495,10745 7499,10736 7504,10727 7509,10719 7514,10710 7520,10702 7527,10694 7533,10687 7540,10679 7548,10673 7556,10666 7564,10660 7572,10655 7581,10649 7590,10645 7599,10641 7609,10637 7618,10633 7628,10631 7638,10628 7648,10626 7658,10625 7668,10624 7678,10624 7678,10624 7688,10624 7699,10625 7709,10626 7719,10628 7729,10631 7739,10634 7749,10637 7759,10641 7768,10646 7777,10651 7786,10656 7795,10662 7803,10668 7811,10675 7818,10682 7826,10690 7832,10698 7839,10706 7845,10715 7850,10723 7855,10733 7859,10742 7864,10752 7867,10761 7870,10771 7872,10782 7874,10792 7876,10802 7877,10813 7877,10823 7877,10823 7877,10833 7876,10844 7875,10854 7873,10864 7870,10875 7867,10885 7864,10894 7860,10904 7855,10914 7850,10923 7845,10932 7839,10940 7833,10949 7826,10956 7819,10964 7811,10971 7803,10978 7795,10984 7786,10990 7778,10996 7768,11001 7759,11005 7749,11009 7740,11013 7730,11016 7719,11018 7709,11020 7699,11022 7688,11023 7678,11023 7678,11023 7668,11023 7657,11022 7647,11021 7637,11019 7626,11016 7616,11013 7607,11010 7597,11006 7587,11001 7578,10996 7569,10991 7561,10985 7552,10979 7545,10972 7537,10965 7530,10957 7523,10949 7517,10941 7511,10932 7505,10924 7500,10914 7496,10905 7492,10895 7488,10886 7485,10876 7483,10865 7481,10855 7479,10845 7478,10834 7478,10824 7479,10824 Z"/>
       </g>
      </g>
     </g>
    </g>
   </g>
  </g>
 </g>
</svg>