<?xml version="1.0" encoding="UTF-8" standalone="no"?>
<!-- Created with Inkscape (http://www.inkscape.org/) -->

<svg
   xmlns:dc="http://purl.org/dc/elements/1.1/"
   xmlns:cc="http://creativecommons.org/ns#"
   xmlns:rdf="http://www.w3.org/1999/02/22-rdf-syntax-ns#"
   xmlns:svg="http://www.w3.org/2000/svg"
   xmlns="http://www.w3.org/2000/svg"
   xmlns:sodipodi="http://sodipodi.sourceforge.net/DTD/sodipodi-0.dtd"
   xmlns:inkscape="http://www.inkscape.org/namespaces/inkscape"
   width="100"
   height="101.00142"
   viewBox="0 0 99.999999 101.00143"
   id="svg2"
   version="1.1"
   inkscape:version="0.91 r13725"
   sodipodi:docname="novoProblema.svg">
  <defs
     id="defs4">
    <clipPath
       id="presentation_clip_path"
       clipPathUnits="userSpaceOnUse">
      <rect
         x="0"
         y="0"
         width="33867"
         height="19050"
         id="rect7" />
    </clipPath>
  </defs>
  <sodipodi:namedview
     id="base"
     pagecolor="#ffffff"
     bordercolor="#666666"
     borderopacity="1.0"
     inkscape:pageopacity="0.0"
     inkscape:pageshadow="2"
     inkscape:zoom="4"
     inkscape:cx="44.676622"
     inkscape:cy="44.181368"
     inkscape:document-units="px"
     inkscape:current-layer="g239"
     showgrid="false"
     inkscape:window-width="1920"
     inkscape:window-height="1021"
     inkscape:window-x="0"
     inkscape:window-y="33"
     inkscape:window-maximized="1"
     units="px"
     fit-margin-top="1"
     fit-margin-right="1"
     fit-margin-left="1"
     fit-margin-bottom="1" />
  <metadata
     id="metadata7">
    <rdf:RDF>
      <cc:Work
         rdf:about="">
        <dc:format>image/svg+xml</dc:format>
        <dc:type
           rdf:resource="http://purl.org/dc/dcmitype/StillImage" />
        <dc:title></dc:title>
      </cc:Work>
    </rdf:RDF>
  </metadata>
  <g
     inkscape:label="Layer 1"
     inkscape:groupmode="layer"
     id="layer1"
     transform="translate(71.624115,-943.69532)">
    <rect
       class="BoundingBox"
       x="-174.2106"
       y="939.17767"
       width="109.09843"
       height="120.36615"
       id="rect276"
       style="fill:none;fill-rule:evenodd;stroke:none;stroke-width:28.22200012;stroke-linejoin:round;shape-rendering:crispEdges" />
    <g
       id="g239"
       class="Page"
       transform="matrix(0.00698418,0,0,0.00698418,-88.894761,962.12152)">
      <rect
         id="rect244"
         height="14174.82"
         width="14031.713"
         y="-2494.8198"
         x="2616.0039"
         class="BoundingBox"
         style="fill:none;stroke:none" />
      <path
         id="path246"
         d="m 13136.317,-837.5599 0,0 180.53,188.10001 166.643,196.01999 158.707,205.92 148.788,213.839997 134.901,219.779993 122.998,227.7 113.079,235.62 99.193,239.58 87.289,243.54001 73.402,247.4999 59.515,251.4601 47.612,255.42 33.726,257.4 21.822,255.42 5.951,261.36 -5.951,257.4 -21.822,259.3799 -33.726,257.4001 -47.612,255.42 -57.531,251.46 -75.386,247.4999 -85.306,245.5201 -99.192,239.58 -113.079,233.64 -122.998,227.6999 -134.901,219.7801 -148.788,213.84 -158.708,205.9199 -166.642,198 -178.546,188.1001 c -382.882,297 -2592.881,3094.7399 -3507.4324,5025.2399 C 8718.3015,9258.46 7549.8186,7585.3601 6125.4202,6163.72 l 0,0 L 5944.8906,5975.6201 5778.2479,5779.6 5619.5405,5573.6801 5472.7362,5359.84 l -136.8851,-219.7799 -122.9982,-227.7 -113.079,-235.6201 -99.192,-239.58 -87.2891,-243.5399 -73.4021,-249.4801 -59.5153,-249.4799 -47.6122,-255.42 -33.7253,-257.4 -19.8384,-257.4 -7.9354,-259.38 5.9515,-259.38 19.8385,-257.4 35.7091,-257.4001 47.6122,-255.42 57.5314,-251.4599 75.386,-247.5 85.3052,-245.52001 99.1921,-239.57999 113.079,-233.64001 122.9982,-227.69999 134.9012,-219.780003 148.7882,-213.840007 158.7073,-205.91999 166.6427,-198 178.5458,-188.1 0,0 188.465,-178.2 198.3842,-166.32 206.3195,-158.4 214.2549,-148.4999 220.2065,-134.6401 226.1579,-122.76 236.0772,-112.86 240.0449,-99 244.0125,-87.12 249.9641,-73.2599 249.9641,-59.4001 255.9156,-47.52 257.8994,-33.66 257.8994,-19.7999 259.8833,-7.9201 261.8672,5.94 257.8998,19.8 255.915,33.6601 255.916,47.52 251.948,59.3999 247.98,75.24 245.996,85.14 240.045,99 234.094,112.86 228.141,122.76 220.207,134.64 216.239,146.52 206.319,158.4 196.4,166.32 188.465,180.18 1.984,0 z m 3509.416,3498.66 0,0 z m -14029.729,3.96 0,0 z"
         inkscape:connector-curvature="0"
         style="fill:#1d9a78;stroke:none" />
      <path
         id="path248"
         d="m 13136.317,-837.5599 0,0 180.53,188.10001 166.643,196.01999 158.707,205.92 148.788,213.839997 134.901,219.779993 122.998,227.7 113.079,235.62 99.193,239.58 87.289,243.54001 73.402,247.4999 59.515,251.4601 47.612,255.42 33.726,257.4 21.822,255.42 5.951,261.36 -5.951,257.4 -21.822,259.3799 -33.726,257.4001 -47.612,255.42 -57.531,251.46 -75.386,247.4999 -85.306,245.5201 -99.192,239.58 -113.079,233.64 -122.998,227.6999 -134.901,219.7801 -148.788,213.84 -158.708,205.9199 -166.642,198 -178.546,188.1001 c -382.882,297 -2592.881,3094.7399 -3507.4324,5025.2399 C 8718.3015,9258.46 7549.8186,7585.3601 6125.4202,6163.72 l 0,0 L 5944.8906,5975.6201 5778.2479,5779.6 5619.5405,5573.6801 5472.7362,5359.84 l -136.8851,-219.7799 -122.9982,-227.7 -113.079,-235.6201 -99.192,-239.58 -87.2891,-243.5399 -73.4021,-249.4801 -59.5153,-249.4799 -47.6122,-255.42 -33.7253,-257.4 -19.8384,-257.4 -7.9354,-259.38 5.9515,-259.38 19.8385,-257.4 35.7091,-257.4001 47.6122,-255.42 57.5314,-251.4599 75.386,-247.5 85.3052,-245.52001 99.1921,-239.57999 113.079,-233.64001 122.9982,-227.69999 134.9012,-219.780003 148.7882,-213.840007 158.7073,-205.91999 166.6427,-198 178.5458,-188.1 0,0 188.465,-178.2 198.3842,-166.32 206.3195,-158.4 214.2549,-148.4999 220.2065,-134.6401 226.1579,-122.76 236.0772,-112.86 240.0449,-99 244.0125,-87.12 249.9641,-73.2599 249.9641,-59.4001 255.9156,-47.52 257.8994,-33.66 257.8994,-19.7999 259.8833,-7.9201 261.8672,5.94 257.8998,19.8 255.915,33.6601 255.916,47.52 251.948,59.3999 247.98,75.24 245.996,85.14 240.045,99 234.094,112.86 228.141,122.76 220.207,134.64 216.239,146.52 206.319,158.4 196.4,166.32 188.465,180.18 1.984,0 z"
         inkscape:connector-curvature="0"
         style="fill:none;stroke:#0e4d3c;stroke-width:420.16702271;stroke-linejoin:miter" />
      <rect
         id="rect253"
         height="8343.7197"
         width="8365.8613"
         y="-1510.7599"
         x="5439.0107"
         class="BoundingBox"
         style="fill:none;stroke:none" />
      <path
         id="path257"
         d="m 5659.2173,2661.1001 0,0 5.9516,-207.9 15.8707,-205.92 25.79,-205.92 37.6929,-203.94 49.5961,-199.98 59.5152,-199.98 67.4507,-194.04 81.3375,-192.06 89.2729,-188.10001 97.2082,-182.16 109.1113,-176.22 117.0467,-170.28 126.9659,-164.33999 134.9012,-158.400004 142.8366,-150.479996 150.772,-142.56 158.7074,-134.64 164.6588,-126.71999 170.6104,-116.82001 176.5619,-108.89999 182.5135,-99.00001 188.465,-89.1 190.4488,-79.2 196.4003,-69.3 198.3842,-59.4 202.3519,-47.52 204.3357,-37.62 206.3195,-27.72 206.3196,-15.84 208.3034,-5.94 0,0 208.3034,5.94 206.3194,15.84 206.32,27.72 202.352,37.62 202.351,47.52 200.368,59.4 194.417,69.3 192.433,79.2 186.481,89.1 182.513,99.00001 176.562,106.92 172.594,118.8 164.659,124.73999 156.724,134.64 150.772,142.56 142.836,150.4799961 134.902,158.4000039 126.965,164.33999 117.047,170.28 109.111,176.22 99.193,182.16 89.272,188.10001 79.354,192.06 69.435,194.04 59.515,199.9799 47.612,199.9801 37.693,203.94 27.774,205.92 15.871,205.92 5.951,207.9 0,0 -5.951,207.9 -15.871,205.92 -27.774,205.92 -37.693,203.94 -47.612,199.98 -59.515,199.9799 -69.435,196.0201 -79.354,190.08 -89.272,188.1 -99.193,182.1599 -107.127,176.22 -119.031,170.28 -124.982,164.34 -134.901,158.4001 -142.836,150.4799 -150.772,142.56 -158.708,134.6401 -164.659,126.72 -170.61,116.8199 -176.562,108.9 -182.513,99 -188.465,89.1 -192.433,79.2001 -194.417,69.3 -200.368,59.3999 -200.368,47.52 -204.335,37.62 -206.32,27.72 -206.3194,15.84 -208.3034,5.9401 0,0 -208.3034,-5.9401 -206.3196,-15.84 -206.3195,-25.7399 -204.3357,-37.62 -200.368,-49.5001 -200.3681,-59.3999 -194.4165,-67.3201 -192.4326,-81.18 -188.465,-89.1 -182.5135,-97.0199 -176.5619,-108.9 -170.6104,-116.8201 -164.6588,-126.72 -158.7074,-134.6399 -150.772,-142.56 -142.8366,-150.48 -134.9012,-158.4 -126.9659,-164.34 -117.0467,-170.28 -109.1113,-176.22 -99.1921,-182.16 -89.2729,-188.1001 -79.3536,-190.08 -69.4345,-196.0199 -59.5152,-198 -47.6123,-201.9601 -37.6929,-203.9399 -27.7738,-205.92 -15.8708,-205.92 -5.9515,-207.9 1.9838,0 z"
         inkscape:connector-curvature="0"
         style="fill:none;stroke:#0e4d3c;stroke-width:420.16702271;stroke-linejoin:miter" />
      <g
         style="fill-rule:evenodd;stroke-width:28.22200012;stroke-linejoin:round"
         id="g324"
         class="com.sun.star.drawing.CustomShape"
         transform="matrix(3.757133,0,0,3.7513565,-36466.234,-84888.676)">
        <g
           id="id15">
          <rect
             style="fill:none;stroke:none"
             id="rect327"
             height="1601"
             width="1602"
             y="22556"
             x="11467"
             class="BoundingBox" />
          <path
             style="fill:#ffffff;stroke:none"
             inkscape:connector-curvature="0"
             id="path329"
             d="m 11467,23226 670,0 0,-670 259,0 0,670 671,0 0,259 -671,0 0,671 -259,0 0,-671 -670,0 0,-259 z m 0,-670 0,0 z m 1600,1600 0,0 z" />
        </g>
      </g>
    </g>
  </g>
</svg>
