<?xml version="1.0" encoding="UTF-8" standalone="no"?>
<!-- Created with Inkscape (http://www.inkscape.org/) -->

<svg
   xmlns:dc="http://purl.org/dc/elements/1.1/"
   xmlns:cc="http://creativecommons.org/ns#"
   xmlns:rdf="http://www.w3.org/1999/02/22-rdf-syntax-ns#"
   xmlns:svg="http://www.w3.org/2000/svg"
   xmlns="http://www.w3.org/2000/svg"
   xmlns:sodipodi="http://sodipodi.sourceforge.net/DTD/sodipodi-0.dtd"
   xmlns:inkscape="http://www.inkscape.org/namespaces/inkscape"
   width="40.401833"
   height="53.992416"
   viewBox="0 0 40.401832 53.99242"
   id="svg2"
   version="1.1"
   inkscape:version="0.91 r13725"
   sodipodi:docname="estruturaViaria.svg">
  <defs
     id="defs4" />
  <sodipodi:namedview
     id="base"
     pagecolor="#ffffff"
     bordercolor="#666666"
     borderopacity="1.0"
     inkscape:pageopacity="0.0"
     inkscape:pageshadow="2"
     inkscape:zoom="5.6"
     inkscape:cx="35.261365"
     inkscape:cy="44.992381"
     inkscape:document-units="px"
     inkscape:current-layer="layer1"
     showgrid="false"
     inkscape:window-width="1366"
     inkscape:window-height="709"
     inkscape:window-x="0"
     inkscape:window-y="33"
     inkscape:window-maximized="1"
     units="px"
     fit-margin-top="2"
     fit-margin-right="2"
     fit-margin-left="2"
     fit-margin-bottom="2" />
  <metadata
     id="metadata7">
    <rdf:RDF>
      <cc:Work
         rdf:about="">
        <dc:format>image/svg+xml</dc:format>
        <dc:type
           rdf:resource="http://purl.org/dc/dcmitype/StillImage" />
        <dc:title></dc:title>
      </cc:Work>
    </rdf:RDF>
  </metadata>
  <g
     inkscape:label="Layer 1"
     inkscape:groupmode="layer"
     id="layer1"
     transform="translate(139.19983,-1080.2145)">
    <rect
       class="BoundingBox"
       x="-143.69495"
       y="1082.215"
       width="49.399105"
       height="49.999744"
       id="rect320"
       style="fill:none;stroke:none" />
    <path
       d="m -106.65783,1088.0607 0,0 0.63556,0.6635 0.58667,0.6915 0.55873,0.7263 0.52382,0.7543 0.47492,0.7753 0.43302,0.8031 0.3981,0.8312 0.34921,0.845 0.3073,0.8591 0.25842,0.873 0.20952,0.887 0.16762,0.901 0.11873,0.9079 0.0768,0.901 0.0209,0.9219 -0.0209,0.9079 -0.0768,0.915 -0.11873,0.9079 -0.16762,0.901 -0.20254,0.8869 -0.2654,0.8731 -0.30032,0.866 -0.34921,0.8451 -0.3981,0.8241 -0.43301,0.8032 -0.47493,0.7753 -0.52381,0.7542 -0.55874,0.7264 -0.58667,0.6984 -0.62857,0.6635 c -1.34795,1.0476 -9.12833,10.9163 -12.34803,17.7259 -3.21971,-6.8026 -7.33339,-12.7043 -12.34803,-17.7189 l 0,0 -0.63557,-0.6635 -0.58667,-0.6914 -0.55873,-0.7264 -0.51683,-0.7543 -0.48191,-0.7752 -0.43302,-0.8032 -0.3981,-0.8311 -0.3492,-0.8451 -0.30731,-0.8591 -0.25841,-0.88 -0.20953,-0.88 -0.16762,-0.9009 -0.11873,-0.908 -0.0698,-0.9079 -0.0279,-0.9149 0.0209,-0.915 0.0699,-0.9079 0.12571,-0.908 0.16762,-0.9009 0.20254,-0.887 0.2654,-0.873 0.30032,-0.8661 0.34921,-0.8451 0.3981,-0.8241 0.43302,-0.8032 0.47492,-0.7752 0.52382,-0.7543 0.55873,-0.7264 0.58667,-0.6984 0.62858,-0.6635 0,0 0.66349,-0.6286 0.69842,-0.5866 0.72636,-0.5588 0.75429,-0.5238 0.77524,-0.4749 0.7962,-0.433 0.83112,-0.3981 0.84508,-0.3492 0.85906,-0.3073 0.88,-0.2584 0.88001,-0.2096 0.90096,-0.1676 0.90794,-0.1187 0.90795,-0.07 0.91492,-0.028 0.92191,0.021 0.90795,0.07 0.90096,0.1187 0.90096,0.1676 0.88699,0.2096 0.87302,0.2654 0.86604,0.3003 0.84508,0.3492 0.82414,0.3981 0.80318,0.433 0.77524,0.4749 0.76128,0.5169 0.72635,0.5587 0.69144,0.5867 0.66349,0.6355 0.007,0 z m 12.355012,12.3411 0,0 z m -49.392122,0.014 0,0 z"
       id="path322"
       inkscape:connector-curvature="0"
       style="fill:#595959;stroke:none" />
    <path
       d="m -106.65783,1088.0607 0,0 0.63556,0.6635 0.58667,0.6915 0.55873,0.7263 0.52382,0.7543 0.47492,0.7753 0.43302,0.8031 0.3981,0.8312 0.34921,0.845 0.3073,0.8591 0.25842,0.873 0.20952,0.887 0.16762,0.901 0.11873,0.9079 0.0768,0.901 0.0209,0.9219 -0.0209,0.9079 -0.0768,0.915 -0.11873,0.9079 -0.16762,0.901 -0.20254,0.8869 -0.2654,0.8731 -0.30032,0.866 -0.34921,0.8451 -0.3981,0.8241 -0.43301,0.8032 -0.47493,0.7753 -0.52381,0.7542 -0.55874,0.7264 -0.58667,0.6984 -0.62857,0.6635 c -1.34795,1.0476 -9.12833,10.9163 -12.34803,17.7259 -3.21971,-6.8026 -7.33339,-12.7043 -12.34803,-17.7189 l 0,0 -0.63557,-0.6635 -0.58667,-0.6914 -0.55873,-0.7264 -0.51683,-0.7543 -0.48191,-0.7752 -0.43302,-0.8032 -0.3981,-0.8311 -0.3492,-0.8451 -0.30731,-0.8591 -0.25841,-0.88 -0.20953,-0.88 -0.16762,-0.9009 -0.11873,-0.908 -0.0698,-0.9079 -0.0279,-0.9149 0.0209,-0.915 0.0699,-0.9079 0.12571,-0.908 0.16762,-0.9009 0.20254,-0.887 0.2654,-0.873 0.30032,-0.8661 0.34921,-0.8451 0.3981,-0.8241 0.43302,-0.8032 0.47492,-0.7752 0.52382,-0.7543 0.55873,-0.7264 0.58667,-0.6984 0.62858,-0.6635 0,0 0.66349,-0.6286 0.69842,-0.5866 0.72636,-0.5588 0.75429,-0.5238 0.77524,-0.4749 0.7962,-0.433 0.83112,-0.3981 0.84508,-0.3492 0.85906,-0.3073 0.88,-0.2584 0.88001,-0.2096 0.90096,-0.1676 0.90794,-0.1187 0.90795,-0.07 0.91492,-0.028 0.92191,0.021 0.90795,0.07 0.90096,0.1187 0.90096,0.1676 0.88699,0.2096 0.87302,0.2654 0.86604,0.3003 0.84508,0.3492 0.82414,0.3981 0.80318,0.433 0.77524,0.4749 0.76128,0.5169 0.72635,0.5587 0.69144,0.5867 0.66349,0.6355 0.007,0 z"
       id="path324"
       inkscape:connector-curvature="0"
       style="fill:none;stroke:#363636;stroke-width:1.48064613;stroke-linejoin:miter" />
    <g
       class="com.sun.star.drawing.CustomShape"
       id="g326"
       transform="matrix(0.00698418,0,0,0.00698418,-278.98549,1050.6395)">
      <g
         id="id22">
        <rect
           class="BoundingBox"
           x="20768"
           y="5018"
           width="4217"
           height="4214"
           id="rect329"
           style="fill:none;stroke:none" />
        <path
           d="m 20879,7125 0,0 3,-105 8,-104 13,-104 19,-103 25,-101 30,-101 34,-98 41,-97 45,-95 49,-92 55,-89 59,-86 64,-83 68,-80 72,-76 76,-72 80,-68 83,-64 86,-59 89,-55 92,-50 95,-45 96,-40 99,-35 100,-30 102,-24 103,-19 104,-14 104,-8 105,-3 0,0 105,3 104,8 104,14 102,19 102,24 101,30 98,35 97,40 94,45 92,50 89,54 87,60 83,63 79,68 76,72 72,76 68,80 64,83 59,86 55,89 50,92 45,95 40,97 35,98 30,101 24,101 19,103 14,104 8,104 3,105 0,0 -3,105 -8,104 -14,104 -19,103 -24,101 -30,101 -35,99 -40,96 -45,95 -50,92 -54,89 -60,86 -63,83 -68,80 -72,76 -76,72 -80,68 -83,64 -86,59 -89,55 -92,50 -95,45 -97,40 -98,35 -101,30 -101,24 -103,19 -104,14 -104,8 -105,3 0,0 -105,-3 -104,-8 -104,-13 -103,-19 -101,-25 -101,-30 -98,-34 -97,-41 -95,-45 -92,-49 -89,-55 -86,-59 -83,-64 -80,-68 -76,-72 -72,-76 -68,-80 -64,-83 -59,-86 -55,-89 -50,-92 -45,-95 -40,-96 -35,-99 -30,-100 -24,-102 -19,-103 -14,-104 -8,-104 -3,-105 1,0 z m 0,-2000 0,0 z m 4000,4000 0,0 z"
           id="path331"
           inkscape:connector-curvature="0"
           style="fill:#ffffff;stroke:none" />
        <path
           d="m 20879,7125 0,0 3,-105 8,-104 13,-104 19,-103 25,-101 30,-101 34,-98 41,-97 45,-95 49,-92 55,-89 59,-86 64,-83 68,-80 72,-76 76,-72 80,-68 83,-64 86,-59 89,-55 92,-50 95,-45 96,-40 99,-35 100,-30 102,-24 103,-19 104,-14 104,-8 105,-3 0,0 105,3 104,8 104,14 102,19 102,24 101,30 98,35 97,40 94,45 92,50 89,54 87,60 83,63 79,68 76,72 72,76 68,80 64,83 59,86 55,89 50,92 45,95 40,97 35,98 30,101 24,101 19,103 14,104 8,104 3,105 0,0 -3,105 -8,104 -14,104 -19,103 -24,101 -30,101 -35,99 -40,96 -45,95 -50,92 -54,89 -60,86 -63,83 -68,80 -72,76 -76,72 -80,68 -83,64 -86,59 -89,55 -92,50 -95,45 -97,40 -98,35 -101,30 -101,24 -103,19 -104,14 -104,8 -105,3 0,0 -105,-3 -104,-8 -104,-13 -103,-19 -101,-25 -101,-30 -98,-34 -97,-41 -95,-45 -92,-49 -89,-55 -86,-59 -83,-64 -80,-68 -76,-72 -72,-76 -68,-80 -64,-83 -59,-86 -55,-89 -50,-92 -45,-95 -40,-96 -35,-99 -30,-100 -24,-102 -19,-103 -14,-104 -8,-104 -3,-105 1,0 z"
           id="path333"
           inkscape:connector-curvature="0"
           style="fill:none;stroke:#363636;stroke-width:212;stroke-linejoin:miter" />
      </g>
    </g>
    <g
       id="g335"
       class="com.sun.star.drawing.CustomShape"
       transform="matrix(0.00698418,0,0,0.00698418,-278.98549,1050.6395)">
      <g
         id="id23">
        <rect
           style="fill:none;stroke:none"
           id="rect338"
           height="2545"
           width="2997"
           y="5815"
           x="21408"
           class="BoundingBox" />
        <path
           style="fill:#595959;stroke:none"
           inkscape:connector-curvature="0"
           id="path340"
           d="m 23718,5815 686,1090 -2310,1453 -685,-1089 2309,-1454 z m 686,1090 0,0 z m -2995,364 0,0 z" />
      </g>
    </g>
    <g
       id="g342"
       class="com.sun.star.drawing.LineShape"
       transform="matrix(0.00698418,0,0,0.00698418,-278.98549,1050.6395)">
      <g
         id="id24">
        <rect
           style="fill:none;stroke:none"
           id="rect345"
           height="1536"
           width="2381"
           y="5770"
           x="21370"
           class="BoundingBox" />
        <path
           style="fill:none;stroke:#262626;stroke-width:106;stroke-linejoin:miter"
           inkscape:connector-curvature="0"
           id="path347"
           d="M 21399,7260 23721,5815" />
      </g>
    </g>
    <g
       id="g349"
       class="com.sun.star.drawing.LineShape"
       transform="matrix(0.00698418,0,0,0.00698418,-278.98549,1050.6395)">
      <g
         id="id25">
        <rect
           style="fill:none;stroke:none"
           id="rect352"
           height="1536"
           width="2381"
           y="6862"
           x="22060"
           class="BoundingBox" />
        <path
           style="fill:none;stroke:#262626;stroke-width:106;stroke-linejoin:miter"
           inkscape:connector-curvature="0"
           id="path354"
           d="M 22089,8352 24411,6907" />
      </g>
    </g>
    <g
       id="g356"
       class="com.sun.star.drawing.LineShape"
       transform="matrix(0.00698418,0,0,0.00698418,-278.98549,1050.6395)">
      <g
         id="id26">
        <rect
           style="fill:none;stroke:none"
           id="rect359"
           height="1503"
           width="2302"
           y="6356"
           x="21723"
           class="BoundingBox" />
        <path
           style="fill:none;stroke:#f19d19;stroke-width:106;stroke-linejoin:miter"
           inkscape:connector-curvature="0"
           id="path361"
           d="m 21752,7813 359,-226" />
        <path
           style="fill:none;stroke:#f19d19;stroke-width:106;stroke-linejoin:miter"
           inkscape:connector-curvature="0"
           id="path363"
           d="m 22380,7418 359,-226" />
        <path
           style="fill:none;stroke:#f19d19;stroke-width:106;stroke-linejoin:miter"
           inkscape:connector-curvature="0"
           id="path365"
           d="m 23008,7023 359,-226" />
        <path
           style="fill:none;stroke:#f19d19;stroke-width:106;stroke-linejoin:miter"
           inkscape:connector-curvature="0"
           id="path367"
           d="m 23636,6627 359,-225" />
      </g>
    </g>
  </g>
</svg>
