<?xml version="1.0" encoding="UTF-8"?>
<!DOCTYPE svg PUBLIC "-//W3C//DTD SVG 1.1//EN" "http://www.w3.org/Graphics/SVG/1.1/DTD/svg11.dtd">
<svg version="1.2" width="10.96mm" height="10.51mm" viewBox="12261 928 1096 1051" preserveAspectRatio="xMidYMid" fill-rule="evenodd" stroke-width="28.222" stroke-linejoin="round" xmlns="http://www.w3.org/2000/svg" xmlns:ooo="http://xml.openoffice.org/svg/export" xmlns:xlink="http://www.w3.org/1999/xlink" xmlns:presentation="http://sun.com/xmlns/staroffice/presentation" xmlns:smil="http://www.w3.org/2001/SMIL20/" xmlns:anim="urn:oasis:names:tc:opendocument:xmlns:animation:1.0" xml:space="preserve">
 <defs class="ClipPathGroup">
  <clipPath id="presentation_clip_path" clipPathUnits="userSpaceOnUse">
   <rect x="12261" y="928" width="1096" height="1051"/>
  </clipPath>
 </defs>
 <defs class="TextShapeIndex">
  <g ooo:slide="id1" ooo:id-list="id3 id4"/>
 </defs>
 <defs class="EmbeddedBulletChars">
  <g id="bullet-char-template(57356)" transform="scale(0.00048828125,-0.00048828125)">
   <path d="M 580,1141 L 1163,571 580,0 -4,571 580,1141 Z"/>
  </g>
  <g id="bullet-char-template(57354)" transform="scale(0.00048828125,-0.00048828125)">
   <path d="M 8,1128 L 1137,1128 1137,0 8,0 8,1128 Z"/>
  </g>
  <g id="bullet-char-template(10146)" transform="scale(0.00048828125,-0.00048828125)">
   <path d="M 174,0 L 602,739 174,1481 1456,739 174,0 Z M 1358,739 L 309,1346 659,739 1358,739 Z"/>
  </g>
  <g id="bullet-char-template(10132)" transform="scale(0.00048828125,-0.00048828125)">
   <path d="M 2015,739 L 1276,0 717,0 1260,543 174,543 174,936 1260,936 717,1481 1274,1481 2015,739 Z"/>
  </g>
  <g id="bullet-char-template(10007)" transform="scale(0.00048828125,-0.00048828125)">
   <path d="M 0,-2 C -7,14 -16,27 -25,37 L 356,567 C 262,823 215,952 215,954 215,979 228,992 255,992 264,992 276,990 289,987 310,991 331,999 354,1012 L 381,999 492,748 772,1049 836,1024 860,1049 C 881,1039 901,1025 922,1006 886,937 835,863 770,784 769,783 710,716 594,584 L 774,223 C 774,196 753,168 711,139 L 727,119 C 717,90 699,76 672,76 641,76 570,178 457,381 L 164,-76 C 142,-110 111,-127 72,-127 30,-127 9,-110 8,-76 1,-67 -2,-52 -2,-32 -2,-23 -1,-13 0,-2 Z"/>
  </g>
  <g id="bullet-char-template(10004)" transform="scale(0.00048828125,-0.00048828125)">
   <path d="M 285,-33 C 182,-33 111,30 74,156 52,228 41,333 41,471 41,549 55,616 82,672 116,743 169,778 240,778 293,778 328,747 346,684 L 369,508 C 377,444 397,411 428,410 L 1163,1116 C 1174,1127 1196,1133 1229,1133 1271,1133 1292,1118 1292,1087 L 1292,965 C 1292,929 1282,901 1262,881 L 442,47 C 390,-6 338,-33 285,-33 Z"/>
  </g>
  <g id="bullet-char-template(9679)" transform="scale(0.00048828125,-0.00048828125)">
   <path d="M 813,0 C 632,0 489,54 383,161 276,268 223,411 223,592 223,773 276,916 383,1023 489,1130 632,1184 813,1184 992,1184 1136,1130 1245,1023 1353,916 1407,772 1407,592 1407,412 1353,268 1245,161 1136,54 992,0 813,0 Z"/>
  </g>
  <g id="bullet-char-template(8226)" transform="scale(0.00048828125,-0.00048828125)">
   <path d="M 346,457 C 273,457 209,483 155,535 101,586 74,649 74,723 74,796 101,859 155,911 209,963 273,989 346,989 419,989 480,963 531,910 582,859 608,796 608,723 608,648 583,586 532,535 482,483 420,457 346,457 Z"/>
  </g>
  <g id="bullet-char-template(8211)" transform="scale(0.00048828125,-0.00048828125)">
   <path d="M -4,459 L 1135,459 1135,606 -4,606 -4,459 Z"/>
  </g>
 </defs>
 <defs class="TextEmbeddedBitmaps"/>
 <g class="SlideGroup">
  <g>
   <g id="id1" class="Slide" clip-path="url(#presentation_clip_path)">
    <g class="Page">
     <g class="Group">
      <g class="com.sun.star.drawing.CustomShape">
       <g id="id3">
        <rect class="BoundingBox" stroke="none" fill="none" x="12260" y="927" width="865" height="860"/>
        <path fill="none" stroke="rgb(255,255,255)" stroke-width="159" stroke-linejoin="miter" d="M 12346,1357 L 12346,1357 12346,1339 12348,1322 12350,1304 12353,1287 12357,1269 12362,1252 12367,1236 12374,1219 12381,1203 12389,1188 12398,1172 12408,1157 12419,1143 12430,1129 12442,1116 12454,1104 12467,1092 12481,1081 12495,1070 12510,1060 12525,1051 12541,1043 12557,1036 12574,1029 12590,1023 12607,1018 12625,1014 12642,1011 12660,1009 12677,1007 12695,1007 12695,1007 12713,1007 12731,1009 12749,1011 12767,1015 12785,1019 12803,1024 12820,1030 12837,1037 12853,1045 12869,1054 12885,1063 12900,1074 12914,1085 12928,1097 12941,1109 12954,1122 12966,1136 12977,1151 12987,1166 12997,1181 13006,1197 13014,1214 13021,1231 13027,1248 13032,1266 13036,1283 13040,1301 13042,1319 13043,1338 13044,1356 13044,1356 13044,1374 13042,1393 13040,1411 13036,1429 13032,1446 13027,1464 13021,1481 13014,1498 13006,1515 12997,1531 12988,1546 12977,1561 12966,1576 12954,1590 12942,1603 12929,1616 12915,1628 12900,1639 12885,1649 12870,1659 12854,1668 12837,1675 12820,1682 12803,1689 12785,1694 12768,1698 12750,1702 12732,1704 12713,1705 12695,1706 12695,1706 12677,1706 12658,1704 12640,1702 12622,1698 12605,1694 12587,1689 12570,1683 12553,1676 12536,1668 12520,1659 12505,1650 12490,1639 12475,1628 12461,1616 12448,1604 12435,1591 12423,1577 12412,1562 12402,1547 12392,1532 12383,1516 12376,1499 12369,1482 12362,1465 12357,1447 12353,1430 12349,1412 12347,1394 12346,1375 12345,1357 12346,1357 Z"/>
       </g>
      </g>
      <g class="com.sun.star.drawing.LineShape">
       <g id="id4">
        <rect class="BoundingBox" stroke="none" fill="none" x="12891" y="1544" width="468" height="436"/>
        <path fill="none" stroke="rgb(255,255,255)" stroke-width="159" stroke-linejoin="miter" d="M 12944,1605 L 13305,1918"/>
       </g>
      </g>
     </g>
    </g>
   </g>
  </g>
 </g>
</svg>