<?xml version="1.0" encoding="UTF-8" standalone="no"?>
<!-- Created with Inkscape (http://www.inkscape.org/) -->

<svg
   xmlns:dc="http://purl.org/dc/elements/1.1/"
   xmlns:cc="http://creativecommons.org/ns#"
   xmlns:rdf="http://www.w3.org/1999/02/22-rdf-syntax-ns#"
   xmlns:svg="http://www.w3.org/2000/svg"
   xmlns="http://www.w3.org/2000/svg"
   xmlns:sodipodi="http://sodipodi.sourceforge.net/DTD/sodipodi-0.dtd"
   xmlns:inkscape="http://www.inkscape.org/namespaces/inkscape"
   width="40.401997"
   height="53.992119"
   viewBox="0 0 40.401996 53.992123"
   id="svg2"
   version="1.1"
   inkscape:version="0.91 r13725"
   sodipodi:docname="redeEletrica.svg">
  <defs
     id="defs4" />
  <sodipodi:namedview
     id="base"
     pagecolor="#ffffff"
     bordercolor="#666666"
     borderopacity="1.0"
     inkscape:pageopacity="0.0"
     inkscape:pageshadow="2"
     inkscape:zoom="7.919596"
     inkscape:cx="34.208271"
     inkscape:cy="25.66897"
     inkscape:document-units="px"
     inkscape:current-layer="layer1"
     showgrid="false"
     inkscape:window-width="1366"
     inkscape:window-height="709"
     inkscape:window-x="0"
     inkscape:window-y="33"
     inkscape:window-maximized="1"
     units="px"
     fit-margin-top="2"
     fit-margin-right="2"
     fit-margin-left="2"
     fit-margin-bottom="2" />
  <metadata
     id="metadata7">
    <rdf:RDF>
      <cc:Work
         rdf:about="">
        <dc:format>image/svg+xml</dc:format>
        <dc:type
           rdf:resource="http://purl.org/dc/dcmitype/StillImage" />
        <dc:title></dc:title>
      </cc:Work>
    </rdf:RDF>
  </metadata>
  <g
     inkscape:label="Layer 1"
     inkscape:groupmode="layer"
     id="layer1"
     transform="translate(76.528299,-992.90991)">
    <rect
       style="fill:none;stroke:none"
       id="rect164"
       height="49.999744"
       width="49.399105"
       y="994.9101"
       x="-81.023331"
       class="BoundingBox" />
    <path
       style="fill:#1d6fa9;stroke:none"
       inkscape:connector-curvature="0"
       id="path166"
       d="m -43.986224,1000.7558 0,0 0.635561,0.6635 0.586671,0.6915 0.558734,0.7263 0.523814,0.7543 0.474924,0.7753 0.433019,0.8031 0.398098,0.8312 0.349209,0.8451 0.307304,0.859 0.258415,0.873 0.209525,0.887 0.167621,0.901 0.118731,0.9079 0.07683,0.901 0.02095,0.9219 -0.02095,0.9079 -0.07683,0.915 -0.118731,0.9079 -0.167621,0.901 -0.202541,0.887 -0.265399,0.873 -0.300319,0.866 -0.349209,0.8451 -0.398099,0.8241 -0.433019,0.8032 -0.474924,0.7753 -0.523814,0.7543 -0.558734,0.7263 -0.586671,0.6984 -0.628576,0.6635 c -1.347947,1.0476 -9.128324,10.9163 -12.348031,17.7259 -3.219706,-6.8026 -7.333389,-12.7043 -12.34803,-17.7189 l 0,0 -0.63556,-0.6635 -0.586671,-0.6914 -0.558735,-0.7264 -0.516829,-0.7543 -0.481908,-0.7752 -0.43302,-0.8032 -0.398098,-0.8311 -0.349209,-0.8451 -0.307304,-0.8591 -0.258414,-0.88 -0.209526,-0.88 -0.16762,-0.9009 -0.118731,-0.908 -0.06984,-0.9079 -0.02794,-0.9149 0.02095,-0.915 0.06984,-0.9079 0.125715,-0.908 0.16762,-0.9009 0.202541,-0.887 0.265399,-0.873 0.30032,-0.8661 0.349209,-0.8451 0.398098,-0.8241 0.433019,-0.8032 0.474925,-0.7752 0.523813,-0.7543 0.558735,-0.7264 0.586671,-0.6984 0.628576,-0.6635 0,0 0.663497,-0.6285 0.698418,-0.58672 0.726355,-0.55873 0.754291,-0.52382 0.775244,-0.47492 0.796197,-0.43302 0.831117,-0.3981 0.845086,-0.34921 0.859054,-0.3073 0.880007,-0.25841 0.880006,-0.20953 0.90096,-0.16762 0.907943,-0.11873 0.907943,-0.0698 0.914928,-0.0279 0.921912,0.021 0.907943,0.0698 0.900959,0.11874 0.90096,0.16762 0.88699,0.20952 0.873023,0.2654 0.866038,0.30032 0.845086,0.34921 0.824133,0.3981 0.803181,0.43302 0.775244,0.47492 0.761276,0.51683 0.726354,0.55873 0.691434,0.5867 0.663497,0.6355 0.007,0 z m 12.355015,12.3411 0,0 z m -49.392121,0.014 0,0 z" />
    <path
       style="fill:none;stroke:#0f3855;stroke-width:1.48064613;stroke-linejoin:miter"
       inkscape:connector-curvature="0"
       id="path168"
       d="m -43.986224,1000.7558 0,0 0.635561,0.6635 0.586671,0.6915 0.558734,0.7263 0.523814,0.7543 0.474924,0.7753 0.433019,0.8031 0.398098,0.8312 0.349209,0.8451 0.307304,0.859 0.258415,0.873 0.209525,0.887 0.167621,0.901 0.118731,0.9079 0.07683,0.901 0.02095,0.9219 -0.02095,0.9079 -0.07683,0.915 -0.118731,0.9079 -0.167621,0.901 -0.202541,0.887 -0.265399,0.873 -0.300319,0.866 -0.349209,0.8451 -0.398099,0.8241 -0.433019,0.8032 -0.474924,0.7753 -0.523814,0.7543 -0.558734,0.7263 -0.586671,0.6984 -0.628576,0.6635 c -1.347947,1.0476 -9.128324,10.9163 -12.348031,17.7259 -3.219706,-6.8026 -7.333389,-12.7043 -12.34803,-17.7189 l 0,0 -0.63556,-0.6635 -0.586671,-0.6914 -0.558735,-0.7264 -0.516829,-0.7543 -0.481908,-0.7752 -0.43302,-0.8032 -0.398098,-0.8311 -0.349209,-0.8451 -0.307304,-0.8591 -0.258414,-0.88 -0.209526,-0.88 -0.16762,-0.9009 -0.118731,-0.908 -0.06984,-0.9079 -0.02794,-0.9149 0.02095,-0.915 0.06984,-0.9079 0.125715,-0.908 0.16762,-0.9009 0.202541,-0.887 0.265399,-0.873 0.30032,-0.8661 0.349209,-0.8451 0.398098,-0.8241 0.433019,-0.8032 0.474925,-0.7752 0.523813,-0.7543 0.558735,-0.7264 0.586671,-0.6984 0.628576,-0.6635 0,0 0.663497,-0.6285 0.698418,-0.58672 0.726355,-0.55873 0.754291,-0.52382 0.775244,-0.47492 0.796197,-0.43302 0.831117,-0.3981 0.845086,-0.34921 0.859054,-0.3073 0.880007,-0.25841 0.880006,-0.20953 0.90096,-0.16762 0.907943,-0.11873 0.907943,-0.0698 0.914928,-0.0279 0.921912,0.021 0.907943,0.0698 0.900959,0.11874 0.90096,0.16762 0.88699,0.20952 0.873023,0.2654 0.866038,0.30032 0.845086,0.34921 0.824133,0.3981 0.803181,0.43302 0.775244,0.47492 0.761276,0.51683 0.726354,0.55873 0.691434,0.5867 0.663497,0.6355 0.007,0 z" />
    <g
       id="g170"
       class="com.sun.star.drawing.CustomShape"
       transform="matrix(0.00698418,0,0,0.00698418,-90.794198,961.8819)">
      <g
         id="id8">
        <rect
           style="fill:none;stroke:none"
           id="rect173"
           height="4214"
           width="4217"
           y="5226"
           x="2822"
           class="BoundingBox" />
        <path
           style="fill:#ffffff;stroke:none"
           inkscape:connector-curvature="0"
           id="path175"
           d="m 2933,7333 0,0 3,-105 8,-104 13,-104 19,-103 25,-101 30,-101 34,-98 41,-97 45,-95 49,-92 55,-89 59,-86 64,-83 68,-80 72,-76 76,-72 80,-68 83,-64 86,-59 89,-55 92,-50 95,-45 96,-40 99,-35 100,-30 102,-24 103,-19 104,-14 104,-8 105,-3 0,0 105,3 104,8 104,14 102,19 102,24 101,30 98,35 97,40 94,45 92,50 89,54 87,60 83,63 79,68 76,72 72,76 68,80 64,83 59,86 55,89 50,92 45,95 40,97 35,98 30,101 24,101 19,103 14,104 8,104 3,105 0,0 -3,105 -8,104 -14,104 -19,103 -24,101 -30,101 -35,99 -40,96 -45,95 -50,92 -54,89 -60,86 -63,83 -68,80 -72,76 -76,72 -80,68 -83,64 -86,59 -89,55 -92,50 -95,45 -97,40 -98,35 -101,30 -101,24 -103,19 -104,14 -104,8 -105,3 0,0 -105,-3 -104,-8 -104,-13 -103,-19 -101,-25 -101,-30 -98,-34 -97,-41 -95,-45 -92,-49 -89,-55 -86,-59 -83,-64 -80,-68 -76,-72 -72,-76 -68,-80 -64,-83 -59,-86 -55,-89 -50,-92 -45,-95 -40,-96 -35,-99 -30,-100 -24,-102 -19,-103 -14,-104 -8,-104 -3,-105 1,0 z m 0,-2000 0,0 z m 4000,4000 0,0 z" />
        <path
           style="fill:none;stroke:#0f3855;stroke-width:212;stroke-linejoin:miter"
           inkscape:connector-curvature="0"
           id="path177"
           d="m 2933,7333 0,0 3,-105 8,-104 13,-104 19,-103 25,-101 30,-101 34,-98 41,-97 45,-95 49,-92 55,-89 59,-86 64,-83 68,-80 72,-76 76,-72 80,-68 83,-64 86,-59 89,-55 92,-50 95,-45 96,-40 99,-35 100,-30 102,-24 103,-19 104,-14 104,-8 105,-3 0,0 105,3 104,8 104,14 102,19 102,24 101,30 98,35 97,40 94,45 92,50 89,54 87,60 83,63 79,68 76,72 72,76 68,80 64,83 59,86 55,89 50,92 45,95 40,97 35,98 30,101 24,101 19,103 14,104 8,104 3,105 0,0 -3,105 -8,104 -14,104 -19,103 -24,101 -30,101 -35,99 -40,96 -45,95 -50,92 -54,89 -60,86 -63,83 -68,80 -72,76 -76,72 -80,68 -83,64 -86,59 -89,55 -92,50 -95,45 -97,40 -98,35 -101,30 -101,24 -103,19 -104,14 -104,8 -105,3 0,0 -105,-3 -104,-8 -104,-13 -103,-19 -101,-25 -101,-30 -98,-34 -97,-41 -95,-45 -92,-49 -89,-55 -86,-59 -83,-64 -80,-68 -76,-72 -72,-76 -68,-80 -64,-83 -59,-86 -55,-89 -50,-92 -45,-95 -40,-96 -35,-99 -30,-100 -24,-102 -19,-103 -14,-104 -8,-104 -3,-105 1,0 z" />
      </g>
    </g>
    <g
       class="com.sun.star.drawing.CustomShape"
       id="g179"
       transform="matrix(0.00698418,0,0,0.00698418,-90.689501,961.8819)">
      <g
         id="id9">
        <rect
           class="BoundingBox"
           x="3692"
           y="5875"
           width="2426"
           height="2832"
           id="rect182"
           style="fill:none;stroke:none" />
        <path
           d="m 5181,5947 -433,720 179,85 -546,618 179,103 -675,1035 1144,-793 -218,-110 711,-508 -255,-157 750,-532 -836,-461 z m 836,0 0,0 z m -2132,2561 0,0 z"
           id="path184"
           inkscape:connector-curvature="0"
           style="fill:#f19d19;stroke:none" />
        <path
           d="m 5181,5947 -433,720 179,85 -546,618 179,103 -675,1035 1144,-793 -218,-110 711,-508 -255,-157 750,-532 -836,-461 z"
           id="path186"
           inkscape:connector-curvature="0"
           style="fill:none;stroke:#7d5008;stroke-width:106;stroke-linejoin:miter" />
      </g>
    </g>
  </g>
</svg>
