<?xml version="1.0" encoding="UTF-8" standalone="no"?>
<!-- Created with Inkscape (http://www.inkscape.org/) -->

<svg
   xmlns:dc="http://purl.org/dc/elements/1.1/"
   xmlns:cc="http://creativecommons.org/ns#"
   xmlns:rdf="http://www.w3.org/1999/02/22-rdf-syntax-ns#"
   xmlns:svg="http://www.w3.org/2000/svg"
   xmlns="http://www.w3.org/2000/svg"
   xmlns:sodipodi="http://sodipodi.sourceforge.net/DTD/sodipodi-0.dtd"
   xmlns:inkscape="http://www.inkscape.org/namespaces/inkscape"
   width="40.401833"
   height="53.992416"
   viewBox="0 0 40.401832 53.99242"
   id="svg2"
   version="1.1"
   inkscape:version="0.91 r13725"
   sodipodi:docname="iluminacaoPublica.svg">
  <defs
     id="defs4" />
  <sodipodi:namedview
     id="base"
     pagecolor="#ffffff"
     bordercolor="#666666"
     borderopacity="1.0"
     inkscape:pageopacity="0.0"
     inkscape:pageshadow="2"
     inkscape:zoom="2.8"
     inkscape:cx="130.60886"
     inkscape:cy="41.828153"
     inkscape:document-units="px"
     inkscape:current-layer="layer1"
     showgrid="false"
     inkscape:window-width="1366"
     inkscape:window-height="709"
     inkscape:window-x="0"
     inkscape:window-y="33"
     inkscape:window-maximized="1"
     units="px"
     fit-margin-top="2"
     fit-margin-right="2"
     fit-margin-left="2"
     fit-margin-bottom="2" />
  <metadata
     id="metadata7">
    <rdf:RDF>
      <cc:Work
         rdf:about="">
        <dc:format>image/svg+xml</dc:format>
        <dc:type
           rdf:resource="http://purl.org/dc/dcmitype/StillImage" />
        <dc:title></dc:title>
      </cc:Work>
    </rdf:RDF>
  </metadata>
  <g
     inkscape:label="Layer 1"
     inkscape:groupmode="layer"
     id="layer1"
     transform="translate(238.0495,-1181.8971)">
    <rect
       class="BoundingBox"
       x="-242.54462"
       y="1183.8976"
       width="49.399105"
       height="49.999744"
       id="rect376"
       style="fill:none;stroke:none" />
    <path
       d="m -205.5075,1189.7434 0,0 0.63556,0.6635 0.58667,0.6914 0.55873,0.7263 0.52382,0.7543 0.47492,0.7753 0.43302,0.8032 0.3981,0.8311 0.34921,0.8451 0.3073,0.859 0.25841,0.873 0.20953,0.887 0.16762,0.901 0.11873,0.9079 0.0768,0.901 0.0209,0.9219 -0.0209,0.9079 -0.0768,0.915 -0.11873,0.9079 -0.16762,0.901 -0.20254,0.887 -0.2654,0.873 -0.30032,0.866 -0.34921,0.8451 -0.3981,0.8241 -0.43302,0.8032 -0.47492,0.7753 -0.52381,0.7543 -0.55874,0.7263 -0.58667,0.6984 -0.62858,0.6635 c -1.34794,1.0477 -9.12832,10.9163 -12.34803,17.7259 -3.2197,-6.8026 -7.33338,-12.7042 -12.34803,-17.7189 l 0,0 -0.63556,-0.6635 -0.58667,-0.6914 -0.55873,-0.7264 -0.51683,-0.7543 -0.48191,-0.7752 -0.43302,-0.8032 -0.3981,-0.8311 -0.34921,-0.8451 -0.3073,-0.859 -0.25841,-0.8801 -0.20953,-0.88 -0.16762,-0.9009 -0.11873,-0.908 -0.0698,-0.9079 -0.0279,-0.9149 0.0209,-0.915 0.0698,-0.9079 0.12572,-0.9079 0.16762,-0.901 0.20254,-0.887 0.2654,-0.873 0.30032,-0.8661 0.34921,-0.845 0.3981,-0.8242 0.43302,-0.8032 0.47492,-0.7752 0.52381,-0.7543 0.55874,-0.7263 0.58667,-0.6985 0.62858,-0.6635 0,0 0.66349,-0.6285 0.69842,-0.5867 0.72636,-0.5587 0.75429,-0.5239 0.77524,-0.4749 0.7962,-0.433 0.83111,-0.3981 0.84509,-0.3492 0.85905,-0.3073 0.88001,-0.2584 0.88001,-0.2096 0.90096,-0.1676 0.90794,-0.1187 0.90794,-0.07 0.91493,-0.028 0.92191,0.021 0.90795,0.07 0.90096,0.1187 0.90096,0.1677 0.88699,0.2095 0.87302,0.2654 0.86604,0.3003 0.84508,0.3492 0.82414,0.3981 0.80318,0.433 0.77524,0.475 0.76128,0.5168 0.72635,0.5587 0.69143,0.5867 0.6635,0.6356 0.007,0 z m 12.35501,12.341 0,0 z m -49.39212,0.014 0,0 z"
       id="path378"
       inkscape:connector-curvature="0"
       style="fill:#f19d19;stroke:none" />
    <path
       d="m -205.5075,1189.7434 0,0 0.63556,0.6635 0.58667,0.6914 0.55873,0.7263 0.52382,0.7543 0.47492,0.7753 0.43302,0.8032 0.3981,0.8311 0.34921,0.8451 0.3073,0.859 0.25841,0.873 0.20953,0.887 0.16762,0.901 0.11873,0.9079 0.0768,0.901 0.0209,0.9219 -0.0209,0.9079 -0.0768,0.915 -0.11873,0.9079 -0.16762,0.901 -0.20254,0.887 -0.2654,0.873 -0.30032,0.866 -0.34921,0.8451 -0.3981,0.8241 -0.43302,0.8032 -0.47492,0.7753 -0.52381,0.7543 -0.55874,0.7263 -0.58667,0.6984 -0.62858,0.6635 c -1.34794,1.0477 -9.12832,10.9163 -12.34803,17.7259 -3.2197,-6.8026 -7.33338,-12.7042 -12.34803,-17.7189 l 0,0 -0.63556,-0.6635 -0.58667,-0.6914 -0.55873,-0.7264 -0.51683,-0.7543 -0.48191,-0.7752 -0.43302,-0.8032 -0.3981,-0.8311 -0.34921,-0.8451 -0.3073,-0.859 -0.25841,-0.8801 -0.20953,-0.88 -0.16762,-0.9009 -0.11873,-0.908 -0.0698,-0.9079 -0.0279,-0.9149 0.0209,-0.915 0.0698,-0.9079 0.12572,-0.9079 0.16762,-0.901 0.20254,-0.887 0.2654,-0.873 0.30032,-0.8661 0.34921,-0.845 0.3981,-0.8242 0.43302,-0.8032 0.47492,-0.7752 0.52381,-0.7543 0.55874,-0.7263 0.58667,-0.6985 0.62858,-0.6635 0,0 0.66349,-0.6285 0.69842,-0.5867 0.72636,-0.5587 0.75429,-0.5239 0.77524,-0.4749 0.7962,-0.433 0.83111,-0.3981 0.84509,-0.3492 0.85905,-0.3073 0.88001,-0.2584 0.88001,-0.2096 0.90096,-0.1676 0.90794,-0.1187 0.90794,-0.07 0.91493,-0.028 0.92191,0.021 0.90795,0.07 0.90096,0.1187 0.90096,0.1677 0.88699,0.2095 0.87302,0.2654 0.86604,0.3003 0.84508,0.3492 0.82414,0.3981 0.80318,0.433 0.77524,0.475 0.76128,0.5168 0.72635,0.5587 0.69143,0.5867 0.6635,0.6356 0.007,0 z"
       id="path380"
       inkscape:connector-curvature="0"
       style="fill:none;stroke:#7d5008;stroke-width:1.48064613;stroke-linejoin:miter" />
    <g
       id="id28"
       transform="matrix(0.00698418,0,0,0.00698418,-417.83356,1152.5945)">
      <rect
         style="fill:none;stroke:none"
         id="rect385"
         height="4214"
         width="4217"
         y="4979"
         x="26495"
         class="BoundingBox" />
      <path
         style="fill:#ffffff;stroke:none"
         inkscape:connector-curvature="0"
         id="path387"
         d="m 26606,7086 0,0 3,-105 8,-104 13,-104 19,-103 25,-101 30,-101 34,-98 41,-97 45,-95 49,-92 55,-89 59,-86 64,-83 68,-80 72,-76 76,-72 80,-68 83,-64 86,-59 89,-55 92,-50 95,-45 96,-40 99,-35 100,-30 102,-24 103,-19 104,-14 104,-8 105,-3 0,0 105,3 104,8 104,14 102,19 102,24 101,30 98,35 97,40 94,45 92,50 89,54 87,60 83,63 79,68 76,72 72,76 68,80 64,83 59,86 55,89 50,92 45,95 40,97 35,98 30,101 24,101 19,103 14,104 8,104 3,105 0,0 -3,105 -8,104 -14,104 -19,103 -24,101 -30,101 -35,99 -40,96 -45,95 -50,92 -54,89 -60,86 -63,83 -68,80 -72,76 -76,72 -80,68 -83,64 -86,59 -89,55 -92,50 -95,45 -97,40 -98,35 -101,30 -101,24 -103,19 -104,14 -104,8 -105,3 0,0 -105,-3 -104,-8 -104,-13 -103,-19 -101,-25 -101,-30 -98,-34 -97,-41 -95,-45 -92,-49 -89,-55 -86,-59 -83,-64 -80,-68 -76,-72 -72,-76 -68,-80 -64,-83 -59,-86 -55,-89 -50,-92 -45,-95 -40,-96 -35,-99 -30,-100 -24,-102 -19,-103 -14,-104 -8,-104 -3,-105 1,0 z m 0,-2000 0,0 z m 4000,4000 0,0 z" />
      <path
         style="fill:none;stroke:#7d5008;stroke-width:212;stroke-linejoin:miter"
         inkscape:connector-curvature="0"
         id="path389"
         d="m 26606,7086 0,0 3,-105 8,-104 13,-104 19,-103 25,-101 30,-101 34,-98 41,-97 45,-95 49,-92 55,-89 59,-86 64,-83 68,-80 72,-76 76,-72 80,-68 83,-64 86,-59 89,-55 92,-50 95,-45 96,-40 99,-35 100,-30 102,-24 103,-19 104,-14 104,-8 105,-3 0,0 105,3 104,8 104,14 102,19 102,24 101,30 98,35 97,40 94,45 92,50 89,54 87,60 83,63 79,68 76,72 72,76 68,80 64,83 59,86 55,89 50,92 45,95 40,97 35,98 30,101 24,101 19,103 14,104 8,104 3,105 0,0 -3,105 -8,104 -14,104 -19,103 -24,101 -30,101 -35,99 -40,96 -45,95 -50,92 -54,89 -60,86 -63,83 -68,80 -72,76 -76,72 -80,68 -83,64 -86,59 -89,55 -92,50 -95,45 -97,40 -98,35 -101,30 -101,24 -103,19 -104,14 -104,8 -105,3 0,0 -105,-3 -104,-8 -104,-13 -103,-19 -101,-25 -101,-30 -98,-34 -97,-41 -95,-45 -92,-49 -89,-55 -86,-59 -83,-64 -80,-68 -76,-72 -72,-76 -68,-80 -64,-83 -59,-86 -55,-89 -50,-92 -45,-95 -40,-96 -35,-99 -30,-100 -24,-102 -19,-103 -14,-104 -8,-104 -3,-105 1,0 z" />
    </g>
    <g
       id="g391"
       class="com.sun.star.drawing.CustomShape"
       transform="matrix(0.00698418,0,0,0.00698418,-417.83356,1152.5945)">
      <g
         id="id29">
        <rect
           style="fill:none;stroke:none"
           id="rect394"
           height="665"
           width="1394"
           y="5786"
           x="28045"
           class="BoundingBox" />
        <path
           style="fill:#808080;stroke:none"
           inkscape:connector-curvature="0"
           id="path396"
           d="m 28767,6206 -604,178 -52,-177 1209,-355 52,177 -605,177 z" />
        <path
           style="fill:none;stroke:#404040;stroke-width:106;stroke-linejoin:miter"
           inkscape:connector-curvature="0"
           id="path398"
           d="m 28767,6206 -604,178 -52,-177 1209,-355 52,177 -605,177 z" />
      </g>
    </g>
    <g
       id="g400"
       class="com.sun.star.drawing.CustomShape"
       transform="matrix(0.00698418,0,0,0.00698418,-417.83356,1152.5945)">
      <g
         id="id30">
        <rect
           style="fill:none;stroke:none"
           id="rect403"
           height="2576"
           width="361"
           y="5801"
           x="27956"
           class="BoundingBox" />
        <path
           style="fill:#808080;stroke:none"
           inkscape:connector-curvature="0"
           id="path405"
           d="m 28010,5854 253,0 0,2469 -253,0 0,-2469 z m 0,0 0,0 z m 253,2469 0,0 z" />
        <path
           style="fill:none;stroke:#404040;stroke-width:106;stroke-linejoin:miter"
           inkscape:connector-curvature="0"
           id="path407"
           d="m 28010,5854 253,0 0,2469 -253,0 0,-2469 z" />
      </g>
    </g>
    <g
       id="g409"
       class="com.sun.star.drawing.CustomShape"
       transform="matrix(0.00698418,0,0,0.00698418,-417.83356,1152.5945)">
      <g
         id="id31">
        <rect
           style="fill:none;stroke:none"
           id="rect412"
           height="631"
           width="609"
           y="5846"
           x="28764"
           class="BoundingBox" />
        <path
           style="fill:#f19d19;stroke:none"
           inkscape:connector-curvature="0"
           id="path414"
           d="m 29308,6092 -1,0 3,12 3,13 2,12 2,12 0,13 1,13 -2,12 -1,13 -1,12 -2,12 -4,12 -3,12 -5,12 -4,11 -5,11 -6,12 -7,10 -7,11 -8,10 -7,9 -9,9 -8,9 -10,9 -10,8 -9,7 -12,7 -10,6 -11,6 -12,5 -11,4 -12,4 -12,3 -12,3 -13,3 -12,1 -13,1 -12,0 -13,0 -12,-1 -13,-2 -12,-1 -12,-4 -12,-3 -12,-4 -12,-4 -11,-6 -11,-6 -11,-6 -10,-7 -10,-7 -10,-8 -9,-8 -9,-9 -9,-10 -8,-9 -7,-10 -7,-10 -6,-11 -6,-12 -6,-11 -5,-12 -4,-11 477,-147 z m -400,384 0,0 z m 322,-630 0,0 z" />
        <path
           style="fill:none;stroke:#7d5008;stroke-width:106;stroke-linejoin:miter"
           inkscape:connector-curvature="0"
           id="path416"
           d="m 29308,6092 -1,0 3,12 3,13 2,12 2,12 0,13 1,13 -2,12 -1,13 -1,12 -2,12 -4,12 -3,12 -5,12 -4,11 -5,11 -6,12 -7,10 -7,11 -8,10 -7,9 -9,9 -8,9 -10,9 -10,8 -9,7 -12,7 -10,6 -11,6 -12,5 -11,4 -12,4 -12,3 -12,3 -13,3 -12,1 -13,1 -12,0 -13,0 -12,-1 -13,-2 -12,-1 -12,-4 -12,-3 -12,-4 -12,-4 -11,-6 -11,-6 -11,-6 -10,-7 -10,-7 -10,-8 -9,-8 -9,-9 -9,-10 -8,-9 -7,-10 -7,-10 -6,-11 -6,-12 -6,-11 -5,-12 -4,-11 477,-147 z" />
      </g>
    </g>
    <g
       id="g418"
       class="com.sun.star.drawing.LineShape"
       transform="matrix(0.00698418,0,0,0.00698418,-417.83356,1152.5945)">
      <g
         id="id32">
        <rect
           style="fill:none;stroke:none"
           id="rect421"
           height="288"
           width="227"
           y="6448"
           x="28694"
           class="BoundingBox" />
        <path
           style="fill:none;stroke:#f19d19;stroke-width:106;stroke-linejoin:miter"
           inkscape:connector-curvature="0"
           id="path423"
           d="m 28873,6474 -132,235" />
      </g>
    </g>
    <g
       id="g425"
       class="com.sun.star.drawing.LineShape"
       transform="matrix(0.00698418,0,0,0.00698418,-417.83356,1152.5945)">
      <g
         id="id33">
        <rect
           style="fill:none;stroke:none"
           id="rect428"
           height="267"
           width="108"
           y="6523"
           x="29063"
           class="BoundingBox" />
        <path
           style="fill:none;stroke:#f19d19;stroke-width:106;stroke-linejoin:miter"
           inkscape:connector-curvature="0"
           id="path430"
           d="m 29116,6524 1,264" />
      </g>
    </g>
    <g
       id="g432"
       class="com.sun.star.drawing.LineShape"
       transform="matrix(0.00698418,0,0,0.00698418,-417.83356,1152.5945)">
      <g
         id="id34">
        <rect
           style="fill:none;stroke:none"
           id="rect435"
           height="261"
           width="271"
           y="6394"
           x="29331"
           class="BoundingBox" />
        <path
           style="fill:none;stroke:#f19d19;stroke-width:106;stroke-linejoin:miter"
           inkscape:connector-curvature="0"
           id="path437"
           d="m 29368,6433 196,182" />
      </g>
    </g>
  </g>
</svg>
