<?xml version="1.0" encoding="UTF-8" standalone="no"?>
<!-- Created with Inkscape (http://www.inkscape.org/) -->

<svg
   xmlns:dc="http://purl.org/dc/elements/1.1/"
   xmlns:cc="http://creativecommons.org/ns#"
   xmlns:rdf="http://www.w3.org/1999/02/22-rdf-syntax-ns#"
   xmlns:svg="http://www.w3.org/2000/svg"
   xmlns="http://www.w3.org/2000/svg"
   xmlns:sodipodi="http://sodipodi.sourceforge.net/DTD/sodipodi-0.dtd"
   xmlns:inkscape="http://www.inkscape.org/namespaces/inkscape"
   width="40.401997"
   height="53.992073"
   viewBox="0 0 40.401996 53.992077"
   id="svg2"
   version="1.1"
   inkscape:version="0.91 r13725"
   sodipodi:docname="pontoCidadOn.svg">
  <defs
     id="defs4" />
  <sodipodi:namedview
     id="base"
     pagecolor="#ffffff"
     bordercolor="#666666"
     borderopacity="1.0"
     inkscape:pageopacity="0.0"
     inkscape:pageshadow="2"
     inkscape:zoom="1.979899"
     inkscape:cx="-14.313206"
     inkscape:cy="49.645863"
     inkscape:document-units="px"
     inkscape:current-layer="layer1"
     showgrid="false"
     inkscape:window-width="1366"
     inkscape:window-height="709"
     inkscape:window-x="0"
     inkscape:window-y="33"
     inkscape:window-maximized="1"
     units="px"
     fit-margin-top="2"
     fit-margin-right="2"
     fit-margin-left="2"
     fit-margin-bottom="2" />
  <metadata
     id="metadata7">
    <rdf:RDF>
      <cc:Work
         rdf:about="">
        <dc:format>image/svg+xml</dc:format>
        <dc:type
           rdf:resource="http://purl.org/dc/dcmitype/StillImage" />
        <dc:title></dc:title>
      </cc:Work>
    </rdf:RDF>
  </metadata>
  <g
     inkscape:label="Layer 1"
     inkscape:groupmode="layer"
     id="layer1"
     transform="translate(67.133437,-992.08816)">
    <rect
       class="BoundingBox"
       x="-71.628464"
       y="994.08832"
       width="49.399105"
       height="49.999744"
       id="rect260"
       style="fill:none;stroke:none" />
    <path
       d="m -34.59136,999.9341 0,0 0.635561,0.6635 0.586671,0.6914 0.558734,0.7264 0.523814,0.7543 0.474924,0.7752 0.433019,0.8032 0.398099,0.8311 0.349209,0.8451 0.307303,0.8591 0.258415,0.873 0.209526,0.887 0.16762,0.9009 0.118731,0.908 0.07683,0.9009 0.02095,0.9219 -0.02095,0.908 -0.07683,0.9149 -0.118731,0.908 -0.16762,0.9009 -0.202542,0.887 -0.265399,0.873 -0.300319,0.8661 -0.349209,0.8451 -0.398099,0.8241 -0.433019,0.8032 -0.474924,0.7752 -0.523813,0.7543 -0.558735,0.7264 -0.586671,0.6984 -0.628576,0.6635 c -1.347947,1.0476 -9.128323,10.9162 -12.34803,17.7258 -3.219707,-6.8026 -7.333389,-12.7042 -12.348031,-17.7188 l 0,0 -0.63556,-0.6635 -0.586671,-0.6915 -0.558735,-0.7263 -0.516829,-0.7543 -0.481908,-0.7753 -0.433019,-0.8031 -0.398099,-0.8312 -0.349209,-0.845 -0.307304,-0.8591 -0.258414,-0.88 -0.209526,-0.88 -0.16762,-0.901 -0.118731,-0.9079 -0.06984,-0.908 -0.02794,-0.9149 0.02095,-0.9149 0.06984,-0.908 0.125715,-0.9079 0.16762,-0.901 0.202542,-0.887 0.265398,-0.873 0.30032,-0.866 0.349209,-0.8451 0.398098,-0.8241 0.43302,-0.8032 0.474924,-0.7753 0.523813,-0.7542 0.558735,-0.7264 0.586671,-0.6984 0.628576,-0.66352 0,0 0.663497,-0.62858 0.698418,-0.58667 0.726355,-0.55873 0.754291,-0.52381 0.775244,-0.47493 0.796197,-0.43302 0.831117,-0.3981 0.845086,-0.34921 0.859054,-0.3073 0.880007,-0.25841 0.880006,-0.20953 0.90096,-0.16762 0.907943,-0.11873 0.907943,-0.0698 0.914928,-0.0279 0.921912,0.0209 0.907943,0.0698 0.900959,0.11873 0.90096,0.16762 0.886991,0.20952 0.873022,0.2654 0.866038,0.30032 0.845086,0.34921 0.824133,0.3981 0.803181,0.43302 0.775244,0.47492 0.761276,0.51683 0.726354,0.55873 0.691434,0.58668 0.663497,0.63556 0.007,0 z m 12.355015,12.341 0,0 z m -49.392121,0.014 0,0 z"
       id="path262"
       inkscape:connector-curvature="0"
       style="fill:#1d9a78;stroke:none;fill-opacity:1" />
    <path
       d="m -34.59136,999.9341 0,0 0.635561,0.6635 0.586671,0.6914 0.558734,0.7264 0.523814,0.7543 0.474924,0.7752 0.433019,0.8032 0.398099,0.8311 0.349209,0.8451 0.307303,0.8591 0.258415,0.873 0.209526,0.887 0.16762,0.9009 0.118731,0.908 0.07683,0.9009 0.02095,0.9219 -0.02095,0.908 -0.07683,0.9149 -0.118731,0.908 -0.16762,0.9009 -0.202542,0.887 -0.265399,0.873 -0.300319,0.8661 -0.349209,0.8451 -0.398099,0.8241 -0.433019,0.8032 -0.474924,0.7752 -0.523813,0.7543 -0.558735,0.7264 -0.586671,0.6984 -0.628576,0.6635 c -1.347947,1.0476 -9.128323,10.9162 -12.34803,17.7258 -3.219707,-6.8026 -7.333389,-12.7042 -12.348031,-17.7188 l 0,0 -0.63556,-0.6635 -0.586671,-0.6915 -0.558735,-0.7263 -0.516829,-0.7543 -0.481908,-0.7753 -0.433019,-0.8031 -0.398099,-0.8312 -0.349209,-0.845 -0.307304,-0.8591 -0.258414,-0.88 -0.209526,-0.88 -0.16762,-0.901 -0.118731,-0.9079 -0.06984,-0.908 -0.02794,-0.9149 0.02095,-0.9149 0.06984,-0.908 0.125715,-0.9079 0.16762,-0.901 0.202542,-0.887 0.265398,-0.873 0.30032,-0.866 0.349209,-0.8451 0.398098,-0.8241 0.43302,-0.8032 0.474924,-0.7753 0.523813,-0.7542 0.558735,-0.7264 0.586671,-0.6984 0.628576,-0.66352 0,0 0.663497,-0.62858 0.698418,-0.58667 0.726355,-0.55873 0.754291,-0.52381 0.775244,-0.47493 0.796197,-0.43302 0.831117,-0.3981 0.845086,-0.34921 0.859054,-0.3073 0.880007,-0.25841 0.880006,-0.20953 0.90096,-0.16762 0.907943,-0.11873 0.907943,-0.0698 0.914928,-0.0279 0.921912,0.0209 0.907943,0.0698 0.900959,0.11873 0.90096,0.16762 0.886991,0.20952 0.873022,0.2654 0.866038,0.30032 0.845086,0.34921 0.824133,0.3981 0.803181,0.43302 0.775244,0.47492 0.761276,0.51683 0.726354,0.55873 0.691434,0.58668 0.663497,0.63556 0.007,0 z"
       id="path264"
       inkscape:connector-curvature="0"
       style="fill:none;stroke:#16735a;stroke-width:1.48064613;stroke-linejoin:miter;stroke-opacity:1" />
    <rect
       class="BoundingBox"
       x="-174.2106"
       y="939.17767"
       width="109.09843"
       height="120.36615"
       id="rect276"
       style="fill:none;fill-rule:evenodd;stroke:none;stroke-width:28.22200012;stroke-linejoin:round;shape-rendering:crispEdges" />
    <g
       style="fill-rule:evenodd;stroke-width:28.22200012;stroke-linejoin:round;shape-rendering:crispEdges"
       class="com.sun.star.drawing.CustomShape"
       id="g282"
       transform="matrix(0.01591062,0,0,0.01591062,-257.50158,847.83651)">
      <g
         id="id27">
        <rect
           class="BoundingBox"
           x="12820"
           y="10160"
           width="871"
           height="862"
           id="rect285"
           style="fill:none;stroke:none" />
        <path
           d="m 12820,11021 0,-430 0,0 1,-22 1,-22 3,-21 4,-22 5,-21 6,-21 7,-20 8,-21 9,-19 11,-20 11,-18 12,-19 13,-17 14,-17 15,-16 15,-16 17,-14 17,-14 17,-13 19,-12 19,-11 19,-10 20,-9 21,-8 21,-7 21,-6 21,-5 22,-4 22,-3 22,-1 22,-1 22,1 22,1 22,3 22,4 21,5 21,6 21,7 21,8 20,9 19,10 19,11 19,12 17,13 17,14 17,14 15,16 15,16 14,17 13,17 12,19 11,18 11,20 9,19 8,21 7,20 6,21 5,21 4,22 3,21 1,22 1,22 0,430 -870,0 z m 0,0 0,0 z m 870,-861 0,0 z"
           id="path287"
           inkscape:connector-curvature="0"
           style="fill:#e7e6e6;stroke:none" />
      </g>
    </g>
    <g
       style="fill-rule:evenodd;stroke-width:28.22200012;stroke-linejoin:round;shape-rendering:crispEdges"
       class="com.sun.star.drawing.CustomShape"
       id="g289"
       transform="matrix(0.01591062,0,0,0.01591062,-257.50158,847.83651)">
      <g
         id="id28">
        <rect
           class="BoundingBox"
           x="12877"
           y="9612"
           width="752"
           height="750"
           id="rect292"
           style="fill:none;stroke:none" />
        <path
           d="m 12907,9987 0,0 0,-18 2,-17 2,-18 3,-17 4,-17 5,-17 5,-17 7,-16 7,-16 8,-16 9,-15 10,-14 10,-15 11,-13 12,-13 13,-13 13,-12 13,-11 14,-10 15,-10 15,-9 16,-8 16,-7 16,-7 17,-6 17,-5 17,-4 17,-3 18,-2 17,-2 18,0 0,0 18,0 18,2 18,2 18,4 18,4 17,5 17,6 17,7 16,8 16,8 16,10 15,10 14,11 14,12 13,13 13,13 11,14 11,14 11,15 9,15 9,16 8,17 7,17 6,17 5,17 4,18 4,18 2,18 1,18 1,18 0,0 0,18 -2,18 -2,18 -4,18 -4,18 -5,17 -6,17 -7,17 -8,17 -8,16 -10,15 -10,15 -11,15 -12,14 -13,13 -13,12 -14,12 -14,11 -15,11 -15,9 -16,9 -17,8 -17,7 -17,6 -17,5 -18,4 -18,4 -18,2 -18,1 -18,1 0,0 -18,0 -18,-2 -18,-2 -18,-4 -18,-4 -17,-5 -17,-6 -17,-7 -17,-8 -16,-8 -15,-10 -15,-10 -15,-11 -14,-12 -13,-13 -12,-13 -12,-14 -11,-14 -11,-15 -9,-15 -9,-16 -8,-17 -7,-17 -6,-17 -5,-17 -4,-18 -4,-18 -2,-18 -1,-18 -1,-18 1,0 z m 0,-348 0,0 z m 696,696 0,0 z"
           id="path294"
           inkscape:connector-curvature="0"
           style="fill:#e7e6e6;stroke:none" />
        <path
           d="m 12907,9987 0,0 0,-18 2,-17 2,-18 3,-17 4,-17 5,-17 5,-17 7,-16 7,-16 8,-16 9,-15 10,-14 10,-15 11,-13 12,-13 13,-13 13,-12 13,-11 14,-10 15,-10 15,-9 16,-8 16,-7 16,-7 17,-6 17,-5 17,-4 17,-3 18,-2 17,-2 18,0 0,0 18,0 18,2 18,2 18,4 18,4 17,5 17,6 17,7 16,8 16,8 16,10 15,10 14,11 14,12 13,13 13,13 11,14 11,14 11,15 9,15 9,16 8,17 7,17 6,17 5,17 4,18 4,18 2,18 1,18 1,18 0,0 0,18 -2,18 -2,18 -4,18 -4,18 -5,17 -6,17 -7,17 -8,17 -8,16 -10,15 -10,15 -11,15 -12,14 -13,13 -13,12 -14,12 -14,11 -15,11 -15,9 -16,9 -17,8 -17,7 -17,6 -17,5 -18,4 -18,4 -18,2 -18,1 -18,1 0,0 -18,0 -18,-2 -18,-2 -18,-4 -18,-4 -17,-5 -17,-6 -17,-7 -17,-8 -16,-8 -15,-10 -15,-10 -15,-11 -14,-12 -13,-13 -12,-13 -12,-14 -11,-14 -11,-15 -9,-15 -9,-16 -8,-17 -7,-17 -6,-17 -5,-17 -4,-18 -4,-18 -2,-18 -1,-18 -1,-18 1,0 z"
           id="path296"
           inkscape:connector-curvature="0"
           style="fill:none;stroke:#1d9a78;stroke-width:53;stroke-linejoin:miter" />
      </g>
    </g>
  </g>
</svg>
