<?xml version="1.0" encoding="UTF-8" standalone="no"?>
<!-- Created with Inkscape (http://www.inkscape.org/) -->

<svg
   xmlns:dc="http://purl.org/dc/elements/1.1/"
   xmlns:cc="http://creativecommons.org/ns#"
   xmlns:rdf="http://www.w3.org/1999/02/22-rdf-syntax-ns#"
   xmlns:svg="http://www.w3.org/2000/svg"
   xmlns="http://www.w3.org/2000/svg"
   xmlns:sodipodi="http://sodipodi.sourceforge.net/DTD/sodipodi-0.dtd"
   xmlns:inkscape="http://www.inkscape.org/namespaces/inkscape"
   width="40.401997"
   height="53.992073"
   viewBox="0 0 40.401996 53.992077"
   id="svg2"
   version="1.1"
   inkscape:version="0.91 r13725"
   sodipodi:docname="redeDistribuicaoAgua.svg">
  <defs
     id="defs4" />
  <sodipodi:namedview
     id="base"
     pagecolor="#ffffff"
     bordercolor="#666666"
     borderopacity="1.0"
     inkscape:pageopacity="0.0"
     inkscape:pageshadow="2"
     inkscape:zoom="3.959798"
     inkscape:cx="48.747552"
     inkscape:cy="40.698826"
     inkscape:document-units="px"
     inkscape:current-layer="layer1"
     showgrid="false"
     inkscape:window-width="1366"
     inkscape:window-height="709"
     inkscape:window-x="0"
     inkscape:window-y="33"
     inkscape:window-maximized="1"
     units="px"
     fit-margin-top="2"
     fit-margin-right="2"
     fit-margin-left="2"
     fit-margin-bottom="2" />
  <metadata
     id="metadata7">
    <rdf:RDF>
      <cc:Work
         rdf:about="">
        <dc:format>image/svg+xml</dc:format>
        <dc:type
           rdf:resource="http://purl.org/dc/dcmitype/StillImage" />
        <dc:title></dc:title>
      </cc:Work>
    </rdf:RDF>
  </metadata>
  <g
     inkscape:label="Layer 1"
     inkscape:groupmode="layer"
     id="layer1"
     transform="translate(67.133437,-992.08816)">
    <rect
       class="BoundingBox"
       x="-71.628464"
       y="994.08832"
       width="49.399105"
       height="49.999744"
       id="rect260"
       style="fill:none;stroke:none" />
    <path
       d="m -34.59136,999.9341 0,0 0.635561,0.6635 0.586671,0.6914 0.558734,0.7264 0.523814,0.7543 0.474924,0.7752 0.433019,0.8032 0.398099,0.8311 0.349209,0.8451 0.307303,0.8591 0.258415,0.873 0.209526,0.887 0.16762,0.9009 0.118731,0.908 0.07683,0.9009 0.02095,0.9219 -0.02095,0.908 -0.07683,0.9149 -0.118731,0.908 -0.16762,0.9009 -0.202542,0.887 -0.265399,0.873 -0.300319,0.8661 -0.349209,0.8451 -0.398099,0.8241 -0.433019,0.8032 -0.474924,0.7752 -0.523813,0.7543 -0.558735,0.7264 -0.586671,0.6984 -0.628576,0.6635 c -1.347947,1.0476 -9.128323,10.9162 -12.34803,17.7258 -3.219707,-6.8026 -7.333389,-12.7042 -12.348031,-17.7188 l 0,0 -0.63556,-0.6635 -0.586671,-0.6915 -0.558735,-0.7263 -0.516829,-0.7543 -0.481908,-0.7753 -0.433019,-0.8031 -0.398099,-0.8312 -0.349209,-0.845 -0.307304,-0.8591 -0.258414,-0.88 -0.209526,-0.88 -0.16762,-0.901 -0.118731,-0.9079 -0.06984,-0.908 -0.02794,-0.9149 0.02095,-0.9149 0.06984,-0.908 0.125715,-0.9079 0.16762,-0.901 0.202542,-0.887 0.265398,-0.873 0.30032,-0.866 0.349209,-0.8451 0.398098,-0.8241 0.43302,-0.8032 0.474924,-0.7753 0.523813,-0.7542 0.558735,-0.7264 0.586671,-0.6984 0.628576,-0.66352 0,0 0.663497,-0.62858 0.698418,-0.58667 0.726355,-0.55873 0.754291,-0.52381 0.775244,-0.47493 0.796197,-0.43302 0.831117,-0.3981 0.845086,-0.34921 0.859054,-0.3073 0.880007,-0.25841 0.880006,-0.20953 0.90096,-0.16762 0.907943,-0.11873 0.907943,-0.0698 0.914928,-0.0279 0.921912,0.0209 0.907943,0.0698 0.900959,0.11873 0.90096,0.16762 0.886991,0.20952 0.873022,0.2654 0.866038,0.30032 0.845086,0.34921 0.824133,0.3981 0.803181,0.43302 0.775244,0.47492 0.761276,0.51683 0.726354,0.55873 0.691434,0.58668 0.663497,0.63556 0.007,0 z m 12.355015,12.341 0,0 z m -49.392121,0.014 0,0 z"
       id="path262"
       inkscape:connector-curvature="0"
       style="fill:#36afce;stroke:none" />
    <path
       d="m -34.59136,999.9341 0,0 0.635561,0.6635 0.586671,0.6914 0.558734,0.7264 0.523814,0.7543 0.474924,0.7752 0.433019,0.8032 0.398099,0.8311 0.349209,0.8451 0.307303,0.8591 0.258415,0.873 0.209526,0.887 0.16762,0.9009 0.118731,0.908 0.07683,0.9009 0.02095,0.9219 -0.02095,0.908 -0.07683,0.9149 -0.118731,0.908 -0.16762,0.9009 -0.202542,0.887 -0.265399,0.873 -0.300319,0.8661 -0.349209,0.8451 -0.398099,0.8241 -0.433019,0.8032 -0.474924,0.7752 -0.523813,0.7543 -0.558735,0.7264 -0.586671,0.6984 -0.628576,0.6635 c -1.347947,1.0476 -9.128323,10.9162 -12.34803,17.7258 -3.219707,-6.8026 -7.333389,-12.7042 -12.348031,-17.7188 l 0,0 -0.63556,-0.6635 -0.586671,-0.6915 -0.558735,-0.7263 -0.516829,-0.7543 -0.481908,-0.7753 -0.433019,-0.8031 -0.398099,-0.8312 -0.349209,-0.845 -0.307304,-0.8591 -0.258414,-0.88 -0.209526,-0.88 -0.16762,-0.901 -0.118731,-0.9079 -0.06984,-0.908 -0.02794,-0.9149 0.02095,-0.9149 0.06984,-0.908 0.125715,-0.9079 0.16762,-0.901 0.202542,-0.887 0.265398,-0.873 0.30032,-0.866 0.349209,-0.8451 0.398098,-0.8241 0.43302,-0.8032 0.474924,-0.7753 0.523813,-0.7542 0.558735,-0.7264 0.586671,-0.6984 0.628576,-0.66352 0,0 0.663497,-0.62858 0.698418,-0.58667 0.726355,-0.55873 0.754291,-0.52381 0.775244,-0.47493 0.796197,-0.43302 0.831117,-0.3981 0.845086,-0.34921 0.859054,-0.3073 0.880007,-0.25841 0.880006,-0.20953 0.90096,-0.16762 0.907943,-0.11873 0.907943,-0.0698 0.914928,-0.0279 0.921912,0.0209 0.907943,0.0698 0.900959,0.11873 0.90096,0.16762 0.886991,0.20952 0.873022,0.2654 0.866038,0.30032 0.845086,0.34921 0.824133,0.3981 0.803181,0.43302 0.775244,0.47492 0.761276,0.51683 0.726354,0.55873 0.691434,0.58668 0.663497,0.63556 0.007,0 z"
       id="path264"
       inkscape:connector-curvature="0"
       style="fill:none;stroke:#195869;stroke-width:1.48064613;stroke-linejoin:miter" />
    <g
       id="id16"
       transform="matrix(0.00698418,0,0,0.00698418,-166.2222,962.51286)">
      <rect
         style="fill:none;stroke:none"
         id="rect269"
         height="4214"
         width="4217"
         y="5018"
         x="14941"
         class="BoundingBox" />
      <path
         style="fill:#ffffff;stroke:none"
         inkscape:connector-curvature="0"
         id="path271"
         d="m 15052,7125 0,0 3,-105 8,-104 13,-104 19,-103 25,-101 30,-101 34,-98 41,-97 45,-95 49,-92 55,-89 59,-86 64,-83 68,-80 72,-76 76,-72 80,-68 83,-64 86,-59 89,-55 92,-50 95,-45 96,-40 99,-35 100,-30 102,-24 103,-19 104,-14 104,-8 105,-3 0,0 105,3 104,8 104,14 102,19 102,24 101,30 98,35 97,40 94,45 92,50 89,54 87,60 83,63 79,68 76,72 72,76 68,80 64,83 59,86 55,89 50,92 45,95 40,97 35,98 30,101 24,101 19,103 14,104 8,104 3,105 0,0 -3,105 -8,104 -14,104 -19,103 -24,101 -30,101 -35,99 -40,96 -45,95 -50,92 -54,89 -60,86 -63,83 -68,80 -72,76 -76,72 -80,68 -83,64 -86,59 -89,55 -92,50 -95,45 -97,40 -98,35 -101,30 -101,24 -103,19 -104,14 -104,8 -105,3 0,0 -105,-3 -104,-8 -104,-13 -103,-19 -101,-25 -101,-30 -98,-34 -97,-41 -95,-45 -92,-49 -89,-55 -86,-59 -83,-64 -80,-68 -76,-72 -72,-76 -68,-80 -64,-83 -59,-86 -55,-89 -50,-92 -45,-95 -40,-96 -35,-99 -30,-100 -24,-102 -19,-103 -14,-104 -8,-104 -3,-105 1,0 z m 0,-2000 0,0 z m 4000,4000 0,0 z" />
      <path
         style="fill:none;stroke:#195869;stroke-width:212;stroke-linejoin:miter"
         inkscape:connector-curvature="0"
         id="path273"
         d="m 15052,7125 0,0 3,-105 8,-104 13,-104 19,-103 25,-101 30,-101 34,-98 41,-97 45,-95 49,-92 55,-89 59,-86 64,-83 68,-80 72,-76 76,-72 80,-68 83,-64 86,-59 89,-55 92,-50 95,-45 96,-40 99,-35 100,-30 102,-24 103,-19 104,-14 104,-8 105,-3 0,0 105,3 104,8 104,14 102,19 102,24 101,30 98,35 97,40 94,45 92,50 89,54 87,60 83,63 79,68 76,72 72,76 68,80 64,83 59,86 55,89 50,92 45,95 40,97 35,98 30,101 24,101 19,103 14,104 8,104 3,105 0,0 -3,105 -8,104 -14,104 -19,103 -24,101 -30,101 -35,99 -40,96 -45,95 -50,92 -54,89 -60,86 -63,83 -68,80 -72,76 -76,72 -80,68 -83,64 -86,59 -89,55 -92,50 -95,45 -97,40 -98,35 -101,30 -101,24 -103,19 -104,14 -104,8 -105,3 0,0 -105,-3 -104,-8 -104,-13 -103,-19 -101,-25 -101,-30 -98,-34 -97,-41 -95,-45 -92,-49 -89,-55 -86,-59 -83,-64 -80,-68 -76,-72 -72,-76 -68,-80 -64,-83 -59,-86 -55,-89 -50,-92 -45,-95 -40,-96 -35,-99 -30,-100 -24,-102 -19,-103 -14,-104 -8,-104 -3,-105 1,0 z" />
    </g>
    <g
       id="g275"
       class="com.sun.star.drawing.CustomShape"
       transform="matrix(0.00698418,0,0,0.00698418,-166.2222,962.51286)">
      <g
         id="id17">
        <rect
           style="fill:none;stroke:none"
           id="rect278"
           height="961"
           width="567"
           y="7166"
           x="16158"
           class="BoundingBox" />
        <path
           style="fill:#36afce;stroke:none"
           inkscape:connector-curvature="0"
           id="path280"
           d="m 16298,8013 0,0 -7,-7 -6,-8 -6,-8 -6,-8 -5,-9 -5,-9 -4,-8 -5,-10 -3,-10 -3,-9 -2,-10 -3,-10 -1,-10 -1,-10 0,-9 -1,-11 2,-10 1,-10 1,-10 2,-10 2,-10 4,-9 4,-9 4,-10 4,-9 5,-9 5,-9 6,-8 7,-8 6,-8 7,-7 c 89,-45 120,-166 145,-285 21,119 67,214 139,287 l 0,0 7,7 7,8 6,8 6,9 5,10 5,9 4,9 4,9 4,11 2,10 3,10 2,10 2,10 -1,10 1,11 -1,11 0,10 -2,10 -2,11 -2,10 -3,10 -4,9 -4,10 -4,9 -5,9 -6,10 -6,8 -6,8 -7,9 -7,7 0,0 -7,7 -9,7 -8,6 -8,6 -10,5 -9,5 -9,4 -10,5 -10,3 -10,3 -10,3 -10,1 -11,2 -10,0 -10,0 -11,0 -10,-1 -10,-2 -11,-2 -10,-1 -10,-4 -10,-4 -9,-4 -10,-4 -9,-5 -9,-6 -8,-6 -9,-6 -8,-7 -7,-7 -2,0 z m -140,-142 0,0 z m 566,4 0,0 z" />
        <path
           style="fill:none;stroke:#195869;stroke-width:106;stroke-linejoin:miter"
           inkscape:connector-curvature="0"
           id="path282"
           d="m 16298,8013 0,0 -7,-7 -6,-8 -6,-8 -6,-8 -5,-9 -5,-9 -4,-8 -5,-10 -3,-10 -3,-9 -2,-10 -3,-10 -1,-10 -1,-10 0,-9 -1,-11 2,-10 1,-10 1,-10 2,-10 2,-10 4,-9 4,-9 4,-10 4,-9 5,-9 5,-9 6,-8 7,-8 6,-8 7,-7 c 89,-45 120,-166 145,-285 21,119 67,214 139,287 l 0,0 7,7 7,8 6,8 6,9 5,10 5,9 4,9 4,9 4,11 2,10 3,10 2,10 2,10 -1,10 1,11 -1,11 0,10 -2,10 -2,11 -2,10 -3,10 -4,9 -4,10 -4,9 -5,9 -6,10 -6,8 -6,8 -7,9 -7,7 0,0 -7,7 -9,7 -8,6 -8,6 -10,5 -9,5 -9,4 -10,5 -10,3 -10,3 -10,3 -10,1 -11,2 -10,0 -10,0 -11,0 -10,-1 -10,-2 -11,-2 -10,-1 -10,-4 -10,-4 -9,-4 -10,-4 -9,-5 -9,-6 -8,-6 -9,-6 -8,-7 -7,-7 -2,0 z" />
      </g>
    </g>
    <g
       id="g284"
       class="Group"
       transform="matrix(0.00698418,0,0,0.00698418,-166.2222,962.51286)">
      <g
         id="g286"
         class="com.sun.star.drawing.CustomShape">
        <g
           id="id18">
          <rect
             style="fill:none;stroke:none"
             id="rect289"
             height="1851"
             width="1765"
             y="6414"
             x="16196"
             class="BoundingBox" />
          <path
             style="fill:#808080;stroke:none"
             inkscape:connector-curvature="0"
             id="path291"
             d="m 17907,8211 0,-1117 0,0 -1,-33 -2,-32 -5,-33 -6,-32 -7,-32 -10,-31 -11,-31 -12,-31 -14,-29 -16,-29 -17,-28 -19,-27 -20,-26 -21,-25 -22,-24 -24,-22 -25,-21 -26,-20 -27,-19 -28,-17 -29,-16 -29,-14 -31,-12 -31,-11 -31,-10 -32,-7 -32,-6 -33,-5 -32,-2 -33,-1 -404,0 0,0 -33,1 -32,2 -33,5 -32,6 -32,7 -31,10 -31,11 -31,12 -29,14 -29,16 -28,17 -27,19 -26,20 -25,21 -24,22 -22,24 -21,25 -20,26 -19,27 -17,28 -16,29 -14,29 -12,31 -11,31 -10,31 -7,32 -6,32 -5,33 -2,32 -1,33 -1,230 0,0 207,0 207,0 0,0 0,-230 1,0 0,-11 1,-11 2,-11 2,-11 2,-11 3,-10 4,-11 4,-10 5,-10 5,-10 6,-9 6,-9 7,-9 7,-9 8,-8 8,-7 8,-7 9,-7 9,-6 9,-6 10,-6 10,-4 10,-5 11,-3 10,-4 11,-2 11,-2 11,-2 11,-1 11,0 405,-1 0,0 11,0 11,1 11,2 11,2 11,2 11,3 10,4 10,4 10,5 10,5 9,6 10,6 8,7 9,7 8,8 8,8 7,9 7,8 6,10 6,9 5,10 5,10 4,10 4,10 3,11 2,11 2,11 2,11 1,11 0,11 1,1118 413,0 z m 0,-1743 0,0 z m -1657,1743 0,0 z" />
          <path
             style="fill:none;stroke:#262626;stroke-width:106;stroke-linejoin:miter"
             inkscape:connector-curvature="0"
             id="path293"
             d="m 17907,8211 0,-1117 0,0 -1,-33 -2,-32 -5,-33 -6,-32 -7,-32 -10,-31 -11,-31 -12,-31 -14,-29 -16,-29 -17,-28 -19,-27 -20,-26 -21,-25 -22,-24 -24,-22 -25,-21 -26,-20 -27,-19 -28,-17 -29,-16 -29,-14 -31,-12 -31,-11 -31,-10 -32,-7 -32,-6 -33,-5 -32,-2 -33,-1 -404,0 0,0 -33,1 -32,2 -33,5 -32,6 -32,7 -31,10 -31,11 -31,12 -29,14 -29,16 -28,17 -27,19 -26,20 -25,21 -24,22 -22,24 -21,25 -20,26 -19,27 -17,28 -16,29 -14,29 -12,31 -11,31 -10,31 -7,32 -6,32 -5,33 -2,32 -1,33 -1,230 0,0 207,0 207,0 0,0 0,-230 1,0 0,-11 1,-11 2,-11 2,-11 2,-11 3,-10 4,-11 4,-10 5,-10 5,-10 6,-9 6,-9 7,-9 7,-9 8,-8 8,-7 8,-7 9,-7 9,-6 9,-6 10,-6 10,-4 10,-5 11,-3 10,-4 11,-2 11,-2 11,-2 11,-1 11,0 405,-1 0,0 11,0 11,1 11,2 11,2 11,2 11,3 10,4 10,4 10,5 10,5 9,6 10,6 8,7 9,7 8,8 8,8 7,9 7,8 6,10 6,9 5,10 5,10 4,10 4,10 3,11 2,11 2,11 2,11 1,11 0,11 1,1118 413,0 z" />
        </g>
      </g>
      <g
         id="g295"
         class="com.sun.star.drawing.CustomShape">
        <g
           id="id19">
          <rect
             style="fill:none;stroke:none"
             id="rect298"
             height="385"
             width="1430"
             y="5918"
             x="16441"
             class="BoundingBox" />
          <path
             style="fill:#808080;stroke:none"
             inkscape:connector-curvature="0"
             id="path300"
             d="m 16494,6110 0,0 0,-7 1,-7 0,-7 2,-7 1,-7 2,-6 2,-7 3,-7 3,-6 3,-6 4,-6 3,-6 4,-6 5,-5 5,-5 5,-5 5,-5 5,-5 6,-4 6,-4 6,-3 6,-3 6,-3 7,-3 6,-2 7,-2 7,-2 7,-1 7,-1 7,-1 7,0 1046,0 0,0 7,0 7,1 7,1 8,1 7,2 6,2 7,2 7,3 6,3 7,3 6,4 6,4 6,5 5,4 5,5 5,6 5,5 4,6 4,6 4,6 4,6 3,7 3,6 2,7 2,7 2,7 1,7 1,8 1,7 0,7 1,1 0,0 0,7 -1,7 -1,8 -1,7 -2,7 -2,7 -2,7 -3,6 -3,7 -3,6 -4,6 -4,6 -5,6 -4,6 -5,5 -6,5 -5,5 -6,4 -6,4 -6,4 -6,4 -7,3 -6,2 -7,3 -7,2 -7,2 -7,1 -8,1 -7,1 -7,0 -1046,0 0,0 -7,0 -7,-1 -8,-1 -7,-1 -7,-2 -7,-2 -7,-2 -6,-3 -7,-3 -6,-3 -6,-4 -6,-4 -6,-5 -6,-4 -5,-5 -5,-6 -5,-5 -4,-6 -4,-6 -4,-6 -4,-6 -3,-7 -2,-6 -3,-7 -2,-7 -2,-7 -1,-7 -1,-8 -1,-7 0,-7 0,-1 z m 0,-139 0,0 z m 1323,278 0,0 z" />
          <path
             style="fill:none;stroke:#262626;stroke-width:106;stroke-linejoin:miter"
             inkscape:connector-curvature="0"
             id="path302"
             d="m 16494,6110 0,0 0,-7 1,-7 0,-7 2,-7 1,-7 2,-6 2,-7 3,-7 3,-6 3,-6 4,-6 3,-6 4,-6 5,-5 5,-5 5,-5 5,-5 5,-5 6,-4 6,-4 6,-3 6,-3 6,-3 7,-3 6,-2 7,-2 7,-2 7,-1 7,-1 7,-1 7,0 1046,0 0,0 7,0 7,1 7,1 8,1 7,2 6,2 7,2 7,3 6,3 7,3 6,4 6,4 6,5 5,4 5,5 5,6 5,5 4,6 4,6 4,6 4,6 3,7 3,6 2,7 2,7 2,7 1,7 1,8 1,7 0,7 1,1 0,0 0,7 -1,7 -1,8 -1,7 -2,7 -2,7 -2,7 -3,6 -3,7 -3,6 -4,6 -4,6 -5,6 -4,6 -5,5 -6,5 -5,5 -6,4 -6,4 -6,4 -6,4 -7,3 -6,2 -7,3 -7,2 -7,2 -7,1 -8,1 -7,1 -7,0 -1046,0 0,0 -7,0 -7,-1 -8,-1 -7,-1 -7,-2 -7,-2 -7,-2 -6,-3 -7,-3 -6,-3 -6,-4 -6,-4 -6,-5 -6,-4 -5,-5 -5,-6 -5,-5 -4,-6 -4,-6 -4,-6 -4,-6 -3,-7 -2,-6 -3,-7 -2,-7 -2,-7 -1,-7 -1,-8 -1,-7 0,-7 0,-1 z" />
        </g>
      </g>
      <g
         id="g304"
         class="com.sun.star.drawing.CustomShape">
        <g
           id="id20">
          <rect
             style="fill:none;stroke:none"
             id="rect307"
             height="324"
             width="439"
             y="6196"
             x="16936"
             class="BoundingBox" />
          <path
             style="fill:#808080;stroke:none"
             inkscape:connector-curvature="0"
             id="path309"
             d="m 17155,6466 -166,0 0,-217 332,0 0,217 -166,0 z" />
          <path
             style="fill:none;stroke:#262626;stroke-width:106;stroke-linejoin:miter"
             inkscape:connector-curvature="0"
             id="path311"
             d="m 17155,6466 -166,0 0,-217 332,0 0,217 -166,0 z" />
        </g>
      </g>
    </g>
  </g>
</svg>
