<?xml version="1.0" encoding="UTF-8" standalone="no"?>
<!-- Created with Inkscape (http://www.inkscape.org/) -->

<svg
   xmlns:dc="http://purl.org/dc/elements/1.1/"
   xmlns:cc="http://creativecommons.org/ns#"
   xmlns:rdf="http://www.w3.org/1999/02/22-rdf-syntax-ns#"
   xmlns:svg="http://www.w3.org/2000/svg"
   xmlns="http://www.w3.org/2000/svg"
   xmlns:sodipodi="http://sodipodi.sourceforge.net/DTD/sodipodi-0.dtd"
   xmlns:inkscape="http://www.inkscape.org/namespaces/inkscape"
   width="40.401997"
   height="53.9921"
   viewBox="0 0 40.401996 53.992104"
   id="svg2"
   version="1.1"
   inkscape:version="0.91 r13725"
   sodipodi:docname="redeEsgotosvg.svg">
  <defs
     id="defs4" />
  <sodipodi:namedview
     id="base"
     pagecolor="#ffffff"
     bordercolor="#666666"
     borderopacity="1.0"
     inkscape:pageopacity="0.0"
     inkscape:pageshadow="2"
     inkscape:zoom="3.959798"
     inkscape:cx="71.168827"
     inkscape:cy="26.484209"
     inkscape:document-units="px"
     inkscape:current-layer="layer1"
     showgrid="false"
     inkscape:window-width="1366"
     inkscape:window-height="709"
     inkscape:window-x="0"
     inkscape:window-y="33"
     inkscape:window-maximized="1"
     units="px"
     fit-margin-top="2"
     fit-margin-right="2"
     fit-margin-left="2"
     fit-margin-bottom="2" />
  <metadata
     id="metadata7">
    <rdf:RDF>
      <cc:Work
         rdf:about="">
        <dc:format>image/svg+xml</dc:format>
        <dc:type
           rdf:resource="http://purl.org/dc/dcmitype/StillImage" />
        <dc:title></dc:title>
      </cc:Work>
    </rdf:RDF>
  </metadata>
  <g
     inkscape:label="Layer 1"
     inkscape:groupmode="layer"
     id="layer1"
     transform="translate(71.578343,-985.74363)">
    <rect
       style="fill:none;stroke:none"
       id="rect164"
       height="49.999744"
       width="49.399105"
       y="994.9101"
       x="-81.023331"
       class="BoundingBox" />
    <rect
       class="BoundingBox"
       x="-76.073372"
       y="987.74384"
       width="49.399105"
       height="49.999744"
       id="rect195"
       style="fill:none;stroke:none" />
    <path
       d="m -39.036265,993.58957 0,0 0.63556,0.66349 0.586671,0.69144 0.558735,0.72635 0.523813,0.75429 0.474925,0.77525 0.433019,0.80318 0.398098,0.83112 0.349209,0.84508 0.307304,0.85903 0.258415,0.873 0.209525,0.887 0.16762,0.901 0.118731,0.9079 0.07683,0.901 0.02095,0.9219 -0.02095,0.908 -0.07683,0.9149 -0.118731,0.9079 -0.16762,0.901 -0.202541,0.887 -0.265399,0.873 -0.30032,0.866 -0.349209,0.8451 -0.398098,0.8242 -0.433019,0.8031 -0.474924,0.7753 -0.523814,0.7543 -0.558734,0.7263 -0.586671,0.6984 -0.628577,0.6635 c -1.347946,1.0477 -9.128323,10.9163 -12.34803,17.7259 -3.219707,-6.8026 -7.333389,-12.7042 -12.34803,-17.7189 l 0,0 -0.635561,-0.6635 -0.586671,-0.6914 -0.558734,-0.7264 -0.516829,-0.7543 -0.481909,-0.7752 -0.433019,-0.8032 -0.398098,-0.8311 -0.349209,-0.8451 -0.307304,-0.859 -0.258415,-0.88 -0.209525,-0.88 -0.167621,-0.901 -0.118731,-0.9079 -0.06984,-0.908 -0.02794,-0.9149 0.02095,-0.9149 0.06984,-0.908 0.125715,-0.9079 0.167621,-0.901 0.202541,-0.887 0.265399,-0.873 0.30032,-0.86604 0.349209,-0.84509 0.398098,-0.82413 0.433019,-0.80318 0.474924,-0.77525 0.523814,-0.75429 0.558734,-0.72635 0.586671,-0.69842 0.628576,-0.6635 0,0 0.663498,-0.62858 0.698418,-0.58667 0.726354,-0.55873 0.754292,-0.52381 0.775244,-0.47493 0.796196,-0.43302 0.831118,-0.3981 0.845085,-0.34921 0.859055,-0.3073 0.880006,-0.25841 0.880007,-0.20953 0.900959,-0.16762 0.907944,-0.11873 0.907943,-0.0698 0.914928,-0.0279 0.921911,0.0209 0.907944,0.0698 0.900959,0.11873 0.900959,0.16762 0.886991,0.20952 0.873023,0.2654 0.866038,0.30032 0.845086,0.34921 0.824133,0.3981 0.803181,0.43302 0.775244,0.47492 0.761275,0.51683 0.726355,0.55873 0.691434,0.58668 0.663497,0.63556 0.007,0 z m 12.355014,12.34103 0,0 z m -49.392121,0.014 0,0 z"
       id="path197"
       inkscape:connector-curvature="0"
       style="fill:#b74919;stroke:none" />
    <path
       d="m -39.036265,993.58957 0,0 0.63556,0.66349 0.586671,0.69144 0.558735,0.72635 0.523813,0.75429 0.474925,0.77525 0.433019,0.80318 0.398098,0.83112 0.349209,0.84508 0.307304,0.85903 0.258415,0.873 0.209525,0.887 0.16762,0.901 0.118731,0.9079 0.07683,0.901 0.02095,0.9219 -0.02095,0.908 -0.07683,0.9149 -0.118731,0.9079 -0.16762,0.901 -0.202541,0.887 -0.265399,0.873 -0.30032,0.866 -0.349209,0.8451 -0.398098,0.8242 -0.433019,0.8031 -0.474924,0.7753 -0.523814,0.7543 -0.558734,0.7263 -0.586671,0.6984 -0.628577,0.6635 c -1.347946,1.0477 -9.128323,10.9163 -12.34803,17.7259 -3.219707,-6.8026 -7.333389,-12.7042 -12.34803,-17.7189 l 0,0 -0.635561,-0.6635 -0.586671,-0.6914 -0.558734,-0.7264 -0.516829,-0.7543 -0.481909,-0.7752 -0.433019,-0.8032 -0.398098,-0.8311 -0.349209,-0.8451 -0.307304,-0.859 -0.258415,-0.88 -0.209525,-0.88 -0.167621,-0.901 -0.118731,-0.9079 -0.06984,-0.908 -0.02794,-0.9149 0.02095,-0.9149 0.06984,-0.908 0.125715,-0.9079 0.167621,-0.901 0.202541,-0.887 0.265399,-0.873 0.30032,-0.86604 0.349209,-0.84509 0.398098,-0.82413 0.433019,-0.80318 0.474924,-0.77525 0.523814,-0.75429 0.558734,-0.72635 0.586671,-0.69842 0.628576,-0.6635 0,0 0.663498,-0.62858 0.698418,-0.58667 0.726354,-0.55873 0.754292,-0.52381 0.775244,-0.47493 0.796196,-0.43302 0.831118,-0.3981 0.845085,-0.34921 0.859055,-0.3073 0.880006,-0.25841 0.880007,-0.20953 0.900959,-0.16762 0.907944,-0.11873 0.907943,-0.0698 0.914928,-0.0279 0.921911,0.0209 0.907944,0.0698 0.900959,0.11873 0.900959,0.16762 0.886991,0.20952 0.873023,0.2654 0.866038,0.30032 0.845086,0.34921 0.824133,0.3981 0.803181,0.43302 0.775244,0.47492 0.761275,0.51683 0.726355,0.55873 0.691434,0.58668 0.663497,0.63556 0.007,0 z"
       id="path199"
       inkscape:connector-curvature="0"
       style="fill:none;stroke:#5b240c;stroke-width:1.48064613;stroke-linejoin:miter" />
    <g
       class="com.sun.star.drawing.CustomShape"
       id="g201"
       transform="matrix(0.00698418,0,0,0.00698418,-132.42872,956.16833)">
      <g
         id="id11">
        <rect
           class="BoundingBox"
           x="9492"
           y="5018"
           width="4217"
           height="4214"
           id="rect204"
           style="fill:none;stroke:none" />
        <path
           d="m 9603,7125 0,0 3,-105 8,-104 13,-104 19,-103 25,-101 30,-101 34,-98 41,-97 45,-95 49,-92 55,-89 59,-86 64,-83 68,-80 72,-76 76,-72 80,-68 83,-64 86,-59 89,-55 92,-50 95,-45 96,-40 99,-35 100,-30 102,-24 103,-19 104,-14 104,-8 105,-3 0,0 105,3 104,8 104,14 102,19 102,24 101,30 98,35 97,40 94,45 92,50 89,54 87,60 83,63 79,68 76,72 72,76 68,80 64,83 59,86 55,89 50,92 45,95 40,97 35,98 30,101 24,101 19,103 14,104 8,104 3,105 0,0 -3,105 -8,104 -14,104 -19,103 -24,101 -30,101 -35,99 -40,96 -45,95 -50,92 -54,89 -60,86 -63,83 -68,80 -72,76 -76,72 -80,68 -83,64 -86,59 -89,55 -92,50 -95,45 -97,40 -98,35 -101,30 -101,24 -103,19 -104,14 -104,8 -105,3 0,0 -105,-3 -104,-8 -104,-13 -103,-19 -101,-25 -101,-30 -98,-34 -97,-41 -95,-45 -92,-49 -89,-55 -86,-59 -83,-64 -80,-68 -76,-72 -72,-76 -68,-80 -64,-83 -59,-86 -55,-89 -50,-92 -45,-95 -40,-96 -35,-99 -30,-100 -24,-102 -19,-103 -14,-104 -8,-104 -3,-105 1,0 z m 0,-2000 0,0 z m 4000,4000 0,0 z"
           id="path206"
           inkscape:connector-curvature="0"
           style="fill:#ffffff;stroke:none" />
        <path
           d="m 9603,7125 0,0 3,-105 8,-104 13,-104 19,-103 25,-101 30,-101 34,-98 41,-97 45,-95 49,-92 55,-89 59,-86 64,-83 68,-80 72,-76 76,-72 80,-68 83,-64 86,-59 89,-55 92,-50 95,-45 96,-40 99,-35 100,-30 102,-24 103,-19 104,-14 104,-8 105,-3 0,0 105,3 104,8 104,14 102,19 102,24 101,30 98,35 97,40 94,45 92,50 89,54 87,60 83,63 79,68 76,72 72,76 68,80 64,83 59,86 55,89 50,92 45,95 40,97 35,98 30,101 24,101 19,103 14,104 8,104 3,105 0,0 -3,105 -8,104 -14,104 -19,103 -24,101 -30,101 -35,99 -40,96 -45,95 -50,92 -54,89 -60,86 -63,83 -68,80 -72,76 -76,72 -80,68 -83,64 -86,59 -89,55 -92,50 -95,45 -97,40 -98,35 -101,30 -101,24 -103,19 -104,14 -104,8 -105,3 0,0 -105,-3 -104,-8 -104,-13 -103,-19 -101,-25 -101,-30 -98,-34 -97,-41 -95,-45 -92,-49 -89,-55 -86,-59 -83,-64 -80,-68 -76,-72 -72,-76 -68,-80 -64,-83 -59,-86 -55,-89 -50,-92 -45,-95 -40,-96 -35,-99 -30,-100 -24,-102 -19,-103 -14,-104 -8,-104 -3,-105 1,0 z"
           id="path208"
           inkscape:connector-curvature="0"
           style="fill:none;stroke:#5b240c;stroke-width:212;stroke-linejoin:miter" />
      </g>
    </g>
    <g
       id="g210"
       class="Group"
       transform="matrix(0.00698418,0,0,0.00698418,-132.42872,956.16833)">
      <g
         id="g212"
         class="Group">
        <g
           id="g214"
           class="com.sun.star.drawing.CustomShape">
          <g
             id="id12">
            <rect
               style="fill:none;stroke:none"
               id="rect217"
               height="1394"
               width="1633"
               y="5986"
               x="11302"
               class="BoundingBox" />
            <path
               style="fill:#808080;stroke:none"
               inkscape:connector-curvature="0"
               id="path219"
               d="m 11515,7325 0,0 8,-1 8,-2 8,-4 8,-6 8,-8 8,-8 8,-11 7,-12 7,-14 8,-15 7,-16 6,-18 7,-20 6,-20 6,-22 6,-23 5,-24 6,-25 4,-27 5,-27 4,-28 4,-29 3,-29 3,-31 3,-31 2,-31 2,-32 1,-32 1,-32 1,-32 0,-33 0,-33 -1,-32 -1,-32 -1,-32 -2,-32 -2,-31 -3,-31 -3,-31 -3,-29 -4,-29 -4,-28 -5,-27 -4,-27 -6,-25 -5,-24 -6,-23 -6,-22 -6,-20 -7,-20 -6,-18 -7,-16 -8,-15 -7,-14 -7,-12 -8,-11 -8,-8 -8,-8 -8,-6 -8,-4 -8,-2 -8,-1 1206,0 0,0 8,1 8,2 8,4 8,6 8,8 8,8 8,11 7,12 7,14 8,15 7,16 6,18 7,20 6,20 6,22 6,23 5,24 6,25 4,27 5,27 4,28 4,29 3,29 3,31 3,31 2,31 2,32 1,32 1,32 1,32 0,33 0,33 -1,32 -1,32 -1,32 -2,32 -2,31 -3,31 -3,31 -3,29 -4,29 -4,28 -5,27 -4,27 -6,25 -5,24 -6,23 -6,22 -6,20 -7,20 -6,18 -7,16 -8,15 -7,14 -7,12 -8,11 -8,8 -8,8 -8,6 -8,4 -8,2 -8,1 -1206,0 z m -160,0 0,0 z m 1527,-1286 0,0 z" />
            <path
               style="fill:#959595;stroke:none"
               inkscape:connector-curvature="0"
               id="path221"
               d="m 11515,7325 0,0 -8,-1 -8,-2 -8,-4 -8,-6 -8,-8 -8,-8 -8,-11 -7,-12 -7,-14 -8,-15 -7,-16 -6,-18 -7,-20 -6,-20 -6,-22 -6,-23 -5,-24 -6,-25 -4,-27 -5,-27 -4,-28 -4,-29 -3,-29 -3,-31 -3,-31 -2,-31 -2,-32 -1,-32 -1,-32 -1,-32 0,-33 0,-33 1,-32 1,-32 1,-32 2,-32 2,-31 3,-31 3,-31 3,-29 4,-29 4,-28 5,-27 4,-27 6,-25 5,-24 6,-23 6,-22 6,-20 7,-20 6,-18 7,-16 8,-15 7,-14 7,-12 8,-11 8,-8 8,-8 8,-6 8,-4 8,-2 8,-1 0,0 8,1 8,2 8,4 8,6 8,8 8,8 8,11 7,12 7,14 8,15 7,16 6,18 7,20 6,20 6,22 6,23 5,24 6,25 4,27 5,27 4,28 4,29 3,29 3,31 3,31 2,31 2,32 1,32 1,32 1,32 0,33 0,33 -1,32 -1,32 -1,32 -2,32 -2,31 -3,31 -3,31 -3,29 -4,29 -4,28 -5,27 -4,27 -6,25 -5,24 -6,23 -6,22 -6,20 -7,20 -6,18 -7,16 -8,15 -7,14 -7,12 -8,11 -8,8 -8,8 -8,6 -8,4 -8,2 -8,1 0,0 z m -160,0 0,0 z m 1527,-1286 0,0 z" />
            <path
               style="fill:none;stroke:#262626;stroke-width:106;stroke-linejoin:miter"
               inkscape:connector-curvature="0"
               id="path223"
               d="m 11515,6039 0,0 8,1 8,2 8,4 8,6 8,8 8,8 8,11 7,12 7,14 8,15 7,16 6,18 7,20 6,20 6,22 6,23 5,24 6,25 4,27 5,27 4,28 4,29 3,29 3,31 3,31 2,31 2,32 1,32 1,32 1,32 0,33 0,33 -1,32 -1,32 -1,32 -2,32 -2,31 -3,31 -3,31 -3,29 -4,29 -4,28 -5,27 -4,27 -6,25 -5,24 -6,23 -6,22 -6,20 -7,20 -6,18 -7,16 -8,15 -7,14 -7,12 -8,11 -8,8 -8,8 -8,6 -8,4 -8,2 -8,1 0,0 -8,-1 -8,-2 -8,-4 -8,-6 -8,-8 -8,-8 -8,-11 -7,-12 -7,-14 -8,-15 -7,-16 -6,-18 -7,-20 -6,-20 -6,-22 -6,-23 -5,-24 -6,-25 -4,-27 -5,-27 -4,-28 -4,-29 -3,-29 -3,-31 -3,-31 -2,-31 -2,-32 -1,-32 -1,-32 -1,-32 0,-33 0,-33 1,-32 1,-32 1,-32 2,-32 2,-31 3,-31 3,-31 3,-29 4,-29 4,-28 5,-27 4,-27 6,-25 5,-24 6,-23 6,-22 6,-20 7,-20 6,-18 7,-16 8,-15 7,-14 7,-12 8,-11 8,-8 8,-8 8,-6 8,-4 8,-2 8,-1 1206,0 0,0 8,1 8,2 8,4 8,6 8,8 8,8 8,11 7,12 7,14 8,15 7,16 6,18 7,20 6,20 6,22 6,23 5,24 6,25 4,27 5,27 4,28 4,29 3,29 3,31 3,31 2,31 2,32 1,32 1,32 1,32 0,33 0,33 -1,32 -1,32 -1,32 -2,32 -2,31 -3,31 -3,31 -3,29 -4,29 -4,28 -5,27 -4,27 -6,25 -5,24 -6,23 -6,22 -6,20 -7,20 -6,18 -7,16 -8,15 -7,14 -7,12 -8,11 -8,8 -8,8 -8,6 -8,4 -8,2 -8,1 -1206,0" />
            <path
               style="fill:none;stroke:#262626;stroke-width:106;stroke-linejoin:miter"
               inkscape:connector-curvature="0"
               id="path225"
               d="m 11355,7325 0,0 z" />
            <path
               style="fill:none;stroke:#262626;stroke-width:106;stroke-linejoin:miter"
               inkscape:connector-curvature="0"
               id="path227"
               d="m 12882,6039 0,0 z" />
          </g>
        </g>
        <g
           id="g229"
           class="com.sun.star.drawing.CustomShape">
          <g
             id="id13">
            <rect
               style="fill:none;stroke:none"
               id="rect232"
               height="1564"
               width="717"
               y="5901"
               x="11215"
               class="BoundingBox" />
            <path
               style="fill:#808080;stroke:none"
               inkscape:connector-curvature="0"
               id="path234"
               d="m 11420,7410 0,0 8,-1 7,-3 8,-4 8,-7 7,-8 8,-10 7,-12 7,-14 7,-15 7,-17 6,-19 7,-20 6,-22 6,-23 6,-25 5,-26 5,-27 5,-29 5,-30 4,-30 4,-32 3,-33 4,-33 3,-35 2,-34 2,-36 2,-36 1,-36 1,-36 1,-37 0,-37 0,-37 -1,-37 -1,-36 -1,-36 -2,-36 -2,-36 -2,-34 -3,-35 -4,-33 -3,-33 -4,-32 -4,-30 -5,-30 -5,-29 -5,-27 -5,-26 -6,-25 -6,-23 -6,-22 -7,-20 -6,-19 -7,-17 -7,-15 -7,-14 -7,-12 -8,-10 -7,-8 -8,-7 -8,-4 -7,-3 -8,-1 305,-1 0,1 8,1 7,3 8,4 8,7 7,8 8,10 7,12 7,14 7,15 7,17 6,19 7,20 6,22 6,23 6,25 5,26 5,27 5,29 5,30 4,30 4,32 3,33 4,33 3,35 2,34 2,36 2,36 1,36 1,36 1,37 0,37 0,37 -1,37 -1,36 -1,36 -2,36 -2,36 -2,34 -3,35 -4,33 -3,33 -4,32 -4,30 -5,30 -5,29 -5,27 -5,26 -6,25 -6,23 -6,22 -7,20 -6,19 -7,17 -7,15 -7,14 -7,12 -8,10 -7,8 -8,7 -8,4 -7,3 -8,1 -305,0 z m -152,0 0,0 z m 610,-1455 0,0 z" />
            <path
               style="fill:#959595;stroke:none"
               inkscape:connector-curvature="0"
               id="path236"
               d="m 11420,7410 0,0 -8,-1 -7,-3 -8,-4 -8,-7 -7,-8 -8,-10 -7,-12 -7,-14 -7,-15 -7,-17 -6,-19 -7,-20 -6,-22 -6,-23 -6,-25 -5,-26 -5,-27 -5,-29 -5,-30 -4,-30 -4,-32 -3,-33 -4,-33 -3,-35 -2,-34 -2,-36 -2,-36 -1,-36 -1,-36 -1,-37 0,-37 0,-37 1,-37 1,-36 1,-36 2,-36 2,-36 2,-34 3,-35 4,-33 3,-33 4,-32 4,-30 5,-30 5,-29 5,-27 5,-26 6,-25 6,-23 6,-22 7,-20 6,-19 7,-17 7,-15 7,-14 7,-12 8,-10 7,-8 8,-7 8,-4 7,-3 8,-1 0,1 8,1 7,3 8,4 8,7 7,8 8,10 7,12 7,14 7,15 7,17 6,19 7,20 6,22 6,23 6,25 5,26 5,27 5,29 5,30 4,30 4,32 3,33 4,33 3,35 2,34 2,36 2,36 1,36 1,36 1,37 0,37 0,37 -1,37 -1,36 -1,36 -2,36 -2,36 -2,34 -3,35 -4,33 -3,33 -4,32 -4,30 -5,30 -5,29 -5,27 -5,26 -6,25 -6,23 -6,22 -7,20 -6,19 -7,17 -7,15 -7,14 -7,12 -8,10 -7,8 -8,7 -8,4 -7,3 -8,1 0,-1 z m -152,0 0,0 z m 610,-1455 0,0 z" />
            <path
               style="fill:none;stroke:#262626;stroke-width:106;stroke-linejoin:miter"
               inkscape:connector-curvature="0"
               id="path238"
               d="m 11420,5955 0,1 8,1 7,3 8,4 8,7 7,8 8,10 7,12 7,14 7,15 7,17 6,19 7,20 6,22 6,23 6,25 5,26 5,27 5,29 5,30 4,30 4,32 3,33 4,33 3,35 2,34 2,36 2,36 1,36 1,36 1,37 0,37 0,37 -1,37 -1,36 -1,36 -2,36 -2,36 -2,34 -3,35 -4,33 -3,33 -4,32 -4,30 -5,30 -5,29 -5,27 -5,26 -6,25 -6,23 -6,22 -7,20 -6,19 -7,17 -7,15 -7,14 -7,12 -8,10 -7,8 -8,7 -8,4 -7,3 -8,1 0,0 -8,-1 -7,-3 -8,-4 -8,-7 -7,-8 -8,-10 -7,-12 -7,-14 -7,-15 -7,-17 -6,-19 -7,-20 -6,-22 -6,-23 -6,-25 -5,-26 -5,-27 -5,-29 -5,-30 -4,-30 -4,-32 -3,-33 -4,-33 -3,-35 -2,-34 -2,-36 -2,-36 -1,-36 -1,-36 -1,-37 0,-37 0,-37 1,-37 1,-36 1,-36 2,-36 2,-36 2,-34 3,-35 4,-33 3,-33 4,-32 4,-30 5,-30 5,-29 5,-27 5,-26 6,-25 6,-23 6,-22 7,-20 6,-19 7,-17 7,-15 7,-14 7,-12 8,-10 7,-8 8,-7 8,-4 7,-3 8,-1 305,-1 0,1 8,1 7,3 8,4 8,7 7,8 8,10 7,12 7,14 7,15 7,17 6,19 7,20 6,22 6,23 6,25 5,26 5,27 5,29 5,30 4,30 4,32 3,33 4,33 3,35 2,34 2,36 2,36 1,36 1,36 1,37 0,37 0,37 -1,37 -1,36 -1,36 -2,36 -2,36 -2,34 -3,35 -4,33 -3,33 -4,32 -4,30 -5,30 -5,29 -5,27 -5,26 -6,25 -6,23 -6,22 -7,20 -6,19 -7,17 -7,15 -7,14 -7,12 -8,10 -7,8 -8,7 -8,4 -7,3 -8,1 -305,0" />
            <path
               style="fill:none;stroke:#262626;stroke-width:106;stroke-linejoin:miter"
               inkscape:connector-curvature="0"
               id="path240"
               d="m 11268,7410 0,0 z" />
            <path
               style="fill:none;stroke:#262626;stroke-width:106;stroke-linejoin:miter"
               inkscape:connector-curvature="0"
               id="path242"
               d="m 11878,5955 0,0 z" />
          </g>
        </g>
      </g>
      <g
         id="g244"
         class="com.sun.star.drawing.CustomShape">
        <g
           id="id14">
          <rect
             style="fill:none;stroke:none"
             id="rect247"
             height="1433"
             width="966"
             y="6920"
             x="10585"
             class="BoundingBox" />
          <path
             style="fill:#893713;stroke:none"
             inkscape:connector-curvature="0"
             id="path249"
             d="m 11495,6983 0,0 c -3,100 -2,200 -9,299 -2,19 -12,36 -18,53 -3,9 -1,22 -9,27 l -26,18 c -3,8 -5,18 -9,26 -10,19 -24,35 -35,53 -6,9 -15,16 -18,26 l -9,27 c 3,126 9,253 9,379 0,494 -23,-123 0,371 -3,12 3,31 -9,35 -21,8 -94,-20 -114,-26 -9,-3 -19,-4 -27,-9 -18,-12 -32,-33 -53,-36 -175,-25 -41,-8 -405,-17 -9,-3 -18,-6 -27,-9 -13,-4 -48,-11 -62,-18 -9,-4 -17,-11 -26,-17 -17,-54 -8,1 9,-53 6,-20 5,-42 9,-62 4,-24 10,-39 17,-62 3,-20 5,-41 9,-61 2,-12 6,-24 9,-36 3,-14 5,-29 9,-44 2,-12 6,-23 8,-35 4,-24 6,-47 9,-71 3,-20 6,-41 9,-62 3,-14 5,-29 9,-44 9,-34 18,-58 35,-88 5,-9 13,-17 18,-26 4,-9 4,-18 9,-27 12,-24 24,-33 44,-53 3,-9 4,-18 9,-26 10,-19 28,-33 35,-53 7,-22 9,-36 26,-53 8,-8 18,-12 27,-18 15,-46 -2,-9 35,-53 7,-8 11,-18 18,-26 8,-10 18,-17 26,-27 7,-8 9,-19 18,-26 7,-6 17,-6 26,-9 20,-19 29,-32 53,-44 8,-4 18,-4 27,-9 53,-29 40,-34 88,-53 l 79,-26 c 9,-3 19,-4 27,-9 8,-6 17,-13 26,-18 9,-4 55,-17 62,-17 17,-1 51,7 62,9 l 0,0 z m -856,-9 0,0 z m 856,1325 0,0 z" />
          <path
             sodipodi:nodetypes="cccccccccc"
             style="fill:none;stroke:#5b240c;stroke-width:106;stroke-linejoin:miter"
             inkscape:connector-curvature="0"
             id="path251"
             d="m 11458.934,6989.0109 c -1.71,110.5197 7.461,251.6545 3.022,329.0547 -95.231,86.4605 -119.795,272.4022 -136.071,411.4267 -3.772,116.2539 -15.188,308.5491 -2.956,531.4421 -77.245,1.2851 -145.255,-31.9909 -311.213,-61.9836 -140.284,-33.2118 -231.831,-40.519 -378.76,-59.9016 13.064,-73.8622 26.699,-193.2693 44,-260.0711 35.405,-145.2479 62.589,-220.073 121.044,-357.9781 70.347,-134.8141 119.463,-221.3462 273,-371 157.456,-134.4312 201.665,-160.9891 387.934,-160.9891 z" />
        </g>
      </g>
    </g>
  </g>
</svg>
